<svg width="216" height="216" viewBox="0 0 216 216" fill="none" xmlns="http://www.w3.org/2000/svg">
<path d="M115.391 12.8588C110.869 10.0913 105.165 10.0913 100.642 12.8588C92.4074 17.8876 87.3112 19.2376 77.6587 19.0351C72.3599 18.9001 67.4324 21.7688 64.8674 26.4263C60.2437 34.8976 56.4974 38.6438 48.0262 43.2676C43.3687 45.7988 40.5337 50.7601 40.6349 56.0588C40.8712 65.7113 39.4874 70.8076 34.4587 79.0426C31.6912 83.5651 31.6912 89.2688 34.4587 93.7913C39.4874 102.026 40.8374 107.123 40.6349 116.775C40.4999 122.074 43.3687 127.001 48.0262 129.566C55.4849 133.65 59.2649 137.025 63.2474 143.573L46.8112 176.344C44.8199 180.36 46.4399 185.22 50.4224 187.211L79.4474 201.724C83.3287 203.648 88.0537 202.196 90.1462 198.416L107.966 166.32L125.786 198.416C127.879 202.196 132.604 203.681 136.485 201.724L165.51 187.211C169.526 185.22 171.146 180.36 169.121 176.344L152.719 143.539C156.667 136.991 160.481 133.616 167.94 129.533C172.597 127.001 175.432 122.04 175.331 116.741C175.095 107.089 176.479 101.993 181.507 93.7576C184.275 89.2351 184.275 83.5313 181.507 79.0088C176.479 70.7738 175.129 65.6776 175.331 56.0251C175.466 50.7263 172.597 45.7988 167.94 43.2338C159.469 38.6101 155.722 34.8638 151.099 26.3926C148.567 21.7351 143.606 18.9001 138.307 19.0013C128.655 19.2376 123.559 17.8538 115.324 12.8251L115.391 12.8588ZM108 54.0001C125.887 54.0001 140.4 68.5126 140.4 86.4001C140.4 104.288 125.887 118.8 108 118.8C90.1124 118.8 75.5999 104.288 75.5999 86.4001C75.5999 68.5126 90.1124 54.0001 108 54.0001Z" fill="#FFD43B"/>
</svg>
