<svg width="45" height="45" viewBox="0 0 45 45" fill="none" xmlns="http://www.w3.org/2000/svg">
<path d="M20.9883 11.032C21.9937 14.0484 20.9672 17.093 18.6961 17.8383C16.425 18.5836 13.7672 16.7414 12.7617 13.725C11.7562 10.7086 12.7828 7.66405 15.0539 6.91874C17.325 6.17343 19.9828 8.01561 20.9883 11.032ZM11.5594 18.4641C12.8883 20.7422 12.5648 23.393 10.8422 24.3773C9.11953 25.3617 6.64453 24.3141 5.32265 22.0359C4.00078 19.7578 4.31718 17.107 6.03984 16.1226C7.7625 15.1383 10.2375 16.1859 11.5594 18.4641ZM9.36562 32.7094C13.05 22.7742 19.5961 20.25 22.5 20.25C25.4039 20.25 31.95 22.7742 35.6344 32.7094C35.8875 33.3914 36 34.1226 36 34.8539V34.9664C36 36.7805 34.5305 38.25 32.7164 38.25C31.9078 38.25 31.1062 38.1516 30.3258 37.9547L24.1383 36.4078C23.0625 36.1406 21.9375 36.1406 20.8617 36.4078L14.6742 37.9547C13.8937 38.1516 13.0922 38.25 12.2836 38.25C10.4695 38.25 9 36.7805 9 34.9664V34.8539C9 34.1226 9.1125 33.3914 9.36562 32.7094ZM34.1578 24.3773C32.4352 23.393 32.1117 20.7422 33.4406 18.4641C34.7695 16.1859 37.2375 15.1383 38.9601 16.1226C40.6828 17.107 41.0062 19.7578 39.6773 22.0359C38.3484 24.3141 35.8805 25.3617 34.1578 24.3773ZM26.3039 17.8383C24.0328 17.093 23.0062 14.0484 24.0117 11.032C25.0172 8.01561 27.675 6.17343 29.9461 6.91874C32.2172 7.66405 33.2437 10.7086 32.2383 13.725C31.2328 16.7414 28.575 18.5836 26.3039 17.8383Z" fill="#6B3900"/>
</svg>
