<svg width="113" height="89" viewBox="0 0 113 89" fill="none" xmlns="http://www.w3.org/2000/svg">
<g filter="url(#filter0_d_155_808)">
<rect x="9.729" width="100" height="73" rx="5" transform="rotate(4.8177 9.729 0)" fill="white" shape-rendering="crispEdges"/>
<rect x="10.1852" y="0.540226" width="99" height="72" rx="4.5" transform="rotate(4.8177 10.1852 0.540226)" stroke="url(#paint0_linear_155_808)" shape-rendering="crispEdges"/>
<g opacity="0.8">
<path d="M46.784 21.0703C47.1832 22.7184 46.5013 24.2904 45.2609 24.5848C44.0206 24.8791 42.6906 23.7811 42.2913 22.133C41.8921 20.4849 42.574 18.9128 43.8144 18.6185C45.0547 18.3241 46.3847 19.4222 46.784 21.0703ZM41.4401 24.5977C42.0443 25.8679 41.7537 27.2622 40.7941 27.7082C39.8345 28.1541 38.5661 27.4865 37.9656 26.2166C37.3651 24.9467 37.652 23.5521 38.6116 23.1061C39.5712 22.6601 40.8396 23.3278 41.4401 24.5977ZM39.6361 32.0701C42.0392 26.9551 45.6312 25.9068 47.1745 26.0369C48.7178 26.1669 52.0836 27.8017 53.5966 33.2467C53.7006 33.6205 53.7276 34.0142 53.6949 34.4028L53.6899 34.4626C53.6086 35.4267 52.7618 36.1418 51.7977 36.0606C51.368 36.0244 50.9464 35.9361 50.5404 35.7965L47.3214 34.6973C46.7616 34.5071 46.1638 34.4567 45.5801 34.5505L42.2224 35.0955C41.7988 35.1651 41.3684 35.1816 40.9387 35.1453C39.9746 35.0641 39.2595 34.2173 39.3407 33.2532L39.3458 33.1934C39.3785 32.8048 39.4711 32.4212 39.6361 32.0701ZM53.1851 28.7525C52.3137 28.1522 52.2606 26.729 53.0689 25.5778C53.8771 24.4266 55.2357 23.9804 56.1071 24.5807C56.9785 25.181 57.0316 26.6042 56.2234 27.7554C55.4151 28.9066 54.0565 29.3528 53.1851 28.7525ZM49.3041 24.9256C48.1305 24.4277 47.7213 22.7637 48.3908 21.2057C49.0602 19.6477 50.5552 18.7877 51.7288 19.2855C52.9024 19.7833 53.3116 21.4473 52.6421 23.0054C51.9727 24.5634 50.4777 25.4234 49.3041 24.9256Z" fill="#E8840F"/>
</g>
<path opacity="0.8" d="M67.6995 23.7727C68.2674 23.8205 68.7564 23.9721 69.1664 24.2275C69.5873 24.4737 69.9266 24.7933 70.1845 25.1864C70.4424 25.5794 70.6268 26.0114 70.7376 26.4824C70.8484 26.9534 70.8833 27.433 70.8421 27.9213C70.806 28.3497 70.7109 28.8234 70.5568 29.3423C70.4027 29.8612 70.1879 30.385 69.9125 30.9138C69.6471 31.4433 69.3136 31.9471 68.9121 32.4251C68.5113 32.8931 68.0451 33.3054 67.5132 33.662C66.9814 34.0186 66.3824 34.2792 65.7162 34.4438C65.624 34.4661 65.543 34.4744 65.4733 34.4685C65.3139 34.455 65.1736 34.393 65.0524 34.2825C64.9413 34.1728 64.8941 34.0182 64.9109 33.8189C64.9226 33.6794 64.9775 33.5636 65.0756 33.4716C65.1745 33.3695 65.3008 33.2999 65.4545 33.2626C66.0094 33.1087 66.5486 32.843 67.0722 32.4657C67.6065 32.0792 68.077 31.6171 68.4836 31.0793C68.901 30.5325 69.1959 29.9502 69.3684 29.3325L69.7372 29.2431C69.5551 29.4987 69.3244 29.7352 69.0452 29.9525C68.7668 30.1599 68.4469 30.3236 68.0856 30.4437C67.7342 30.5646 67.3492 30.6074 66.9307 30.5721C66.283 30.5175 65.738 30.316 65.2957 29.9677C64.8534 29.6193 64.5245 29.1751 64.3091 28.6351C64.0937 28.0951 64.0124 27.5112 64.0654 26.8834C64.1166 26.2756 64.3081 25.7297 64.6399 25.2459C64.9825 24.7529 65.421 24.3734 65.9552 24.1073C66.4903 23.8313 67.0717 23.7197 67.6995 23.7727ZM67.6199 24.8949C67.2114 24.8605 66.8343 24.9291 66.4886 25.1007C66.1538 25.2631 65.877 25.5107 65.6583 25.8435C65.4404 26.1664 65.313 26.547 65.2761 26.9855C65.2408 27.404 65.2882 27.7944 65.4182 28.1566C65.5582 28.5196 65.7739 28.8188 66.0651 29.0541C66.3672 29.2802 66.7424 29.4122 67.1908 29.45C67.6592 29.4895 68.0716 29.4189 68.428 29.2382C68.7844 29.0575 69.067 28.8003 69.2758 28.4666C69.4954 28.1239 69.6228 27.7432 69.6581 27.3247C69.6925 26.9162 69.6339 26.5399 69.4822 26.1959C69.3314 25.842 69.0954 25.5462 68.7743 25.3084C68.4631 25.0714 68.0783 24.9336 67.6199 24.8949ZM76.0925 24.4801C76.6605 24.5279 77.1495 24.6795 77.5595 24.9349C77.9803 25.1811 78.3197 25.5007 78.5776 25.8938C78.8355 26.2868 79.0199 26.7188 79.1307 27.1898C79.2415 27.6608 79.2764 28.1404 79.2352 28.6287C79.1991 29.0571 79.104 29.5308 78.9499 30.0497C78.7958 30.5686 78.581 31.0924 78.3056 31.6212C78.0402 32.1507 77.7067 32.6545 77.3052 33.1325C76.9044 33.6005 76.4382 34.0128 75.9063 34.3694C75.3745 34.726 74.7755 34.9866 74.1093 35.1512C74.0171 35.1735 73.9361 35.1818 73.8664 35.1759C73.707 35.1624 73.5667 35.1004 73.4455 34.9899C73.3343 34.8802 73.2872 34.7256 73.304 34.5263C73.3157 34.3868 73.3706 34.271 73.4687 34.179C73.5676 34.0769 73.6939 34.0073 73.8476 33.97C74.4025 33.8161 74.9417 33.5504 75.4652 33.1731C75.9996 32.7866 76.4701 32.3245 76.8767 31.7867C77.2941 31.2398 77.589 30.6576 77.7615 30.0399L78.1303 29.9505C77.9482 30.2061 77.7175 30.4426 77.4383 30.6599C77.1599 30.8673 76.84 31.031 76.4786 31.1511C76.1272 31.272 75.7423 31.3148 75.3238 31.2795C74.6761 31.2249 74.1311 31.0234 73.6888 30.6751C73.2465 30.3267 72.9176 29.8825 72.7022 29.3425C72.4868 28.8025 72.4055 28.2186 72.4584 27.5908C72.5097 26.983 72.7012 26.4371 73.033 25.9533C73.3756 25.4603 73.814 25.0808 74.3483 24.8147C74.8834 24.5387 75.4648 24.4271 76.0925 24.4801ZM76.013 25.6023C75.6045 25.5679 75.2274 25.6365 74.8817 25.8081C74.5469 25.9705 74.2701 26.2181 74.0514 26.5509C73.8335 26.8738 73.7061 27.2544 73.6692 27.6929C73.6339 28.1114 73.6813 28.5018 73.8113 28.864C73.9513 29.227 74.1669 29.5262 74.4582 29.7615C74.7603 29.9876 75.1355 30.1196 75.5839 30.1574C76.0523 30.1969 76.4647 30.1263 76.8211 29.9456C77.1775 29.7649 77.4601 29.5077 77.6689 29.174C77.8885 28.8313 78.0159 28.4506 78.0511 28.0321C78.0856 27.6235 78.027 27.2473 77.8753 26.9033C77.7245 26.5494 77.4885 26.2536 77.1674 26.0158C76.8562 25.7788 76.4714 25.641 76.013 25.6023Z" fill="#E8840F"/>
<path opacity="0.8" d="M20.0959 57.7146C20.0879 57.8102 20.0449 57.8909 19.9672 57.9566C19.8894 58.0223 19.8026 58.0511 19.707 58.0431C19.6033 58.0343 19.5187 57.9911 19.453 57.9133C19.3952 57.8361 19.3704 57.7498 19.3785 57.6541L20.0638 49.5229C20.0719 49.4273 20.1148 49.3466 20.1926 49.2809C20.2704 49.2152 20.3571 49.1864 20.4528 49.1944C20.5564 49.2032 20.6371 49.2461 20.6948 49.3232C20.7605 49.401 20.7893 49.4877 20.7813 49.5834L20.0959 57.7146ZM27.5576 52.551C27.6612 52.5597 27.7419 52.6027 27.7996 52.6798C27.8653 52.7576 27.8938 52.8483 27.8851 52.9519L27.4315 58.3328C27.4235 58.4285 27.3806 58.5092 27.3028 58.5749C27.225 58.6406 27.1382 58.6694 27.0426 58.6613C26.939 58.6526 26.8543 58.6093 26.7886 58.5315C26.7309 58.4544 26.706 58.368 26.7141 58.2724L26.834 56.8494L27.0454 56.7709C27.0266 56.9941 26.9436 57.2159 26.7966 57.4363C26.6575 57.6574 26.472 57.8586 26.24 58.0397C26.0079 58.2209 25.7391 58.3628 25.4333 58.4655C25.1363 58.5609 24.8204 58.5945 24.4855 58.5662C23.9435 58.5206 23.4689 58.3401 23.062 58.0248C22.663 57.7101 22.3604 57.2993 22.1543 56.7922C21.9561 56.2857 21.8826 55.7296 21.9336 55.1238C21.986 54.502 22.1556 53.9663 22.4424 53.5168C22.7298 53.0593 23.0962 52.7129 23.5416 52.4774C23.9869 52.242 24.4766 52.1468 25.0108 52.1918C25.3535 52.2207 25.6674 52.3074 25.9522 52.4518C26.2451 52.5969 26.4944 52.7825 26.7001 53.0086C26.9059 53.2347 27.0571 53.4883 27.1538 53.7694C27.2592 54.0432 27.2998 54.3236 27.2756 54.6106L27.0396 54.4101L27.1676 52.8914C27.1764 52.7878 27.2156 52.7028 27.2854 52.6364C27.3632 52.5707 27.454 52.5423 27.5576 52.551ZM24.6018 57.9017C25.0243 57.9373 25.408 57.8612 25.753 57.6735C26.0986 57.4779 26.3793 57.1964 26.5949 56.8293C26.8191 56.4548 26.9514 56.0284 26.9917 55.5501C27.0314 55.0797 26.9713 54.6492 26.8116 54.2584C26.6598 53.8682 26.4299 53.5478 26.1219 53.2971C25.8138 53.0463 25.4486 52.9031 25.0261 52.8675C24.6115 52.8326 24.2278 52.9086 23.8748 53.0956C23.5299 53.2833 23.2459 53.5564 23.023 53.915C22.8081 54.2742 22.6801 54.6969 22.6391 55.1832C22.5988 55.6615 22.6539 56.1037 22.8043 56.5098C22.9634 56.9085 23.1969 57.2333 23.505 57.4841C23.8137 57.7268 24.1793 57.866 24.6018 57.9017ZM25.2544 50.5866L24.1405 51.3718C24.0807 51.415 24.0255 51.4505 23.975 51.4783C23.9325 51.5068 23.8793 51.5184 23.8155 51.5131C23.7597 51.5083 23.7136 51.4844 23.6771 51.4412C23.6406 51.398 23.6244 51.3524 23.6284 51.3046C23.6311 51.2727 23.6377 51.2412 23.6484 51.2099C23.667 51.1794 23.6976 51.1499 23.7402 51.1213L24.6937 50.2383C24.7928 50.1102 24.9301 50.0535 25.1054 50.0683L25.2968 50.0844C25.3844 50.0918 25.4548 50.1138 25.508 50.1504C25.5697 50.1797 25.6212 50.2362 25.6623 50.3199L26.4436 51.3371C26.4721 51.3797 26.489 51.4172 26.4943 51.4498C26.5082 51.4751 26.5135 51.5076 26.5102 51.5475C26.5068 51.5873 26.4835 51.6255 26.4403 51.662C26.4051 51.6992 26.3595 51.7154 26.3037 51.7107C26.24 51.7053 26.1855 51.6847 26.1404 51.6488C26.0952 51.6129 26.0468 51.5686 25.995 51.5161L25.0023 50.5774L25.2544 50.5866ZM26.7194 50.4933C26.6636 50.4886 26.6092 50.468 26.5561 50.4314C26.5109 50.3955 26.4701 50.3559 26.4336 50.3127L25.5615 49.3721C25.5177 49.3203 25.4819 49.2691 25.454 49.2186C25.4262 49.168 25.4149 49.1109 25.4203 49.0471C25.4297 48.9355 25.473 48.8508 25.5501 48.7931C25.6272 48.7354 25.7136 48.7106 25.8093 48.7186C25.897 48.726 25.9707 48.7563 26.0304 48.8095C26.0902 48.8627 26.134 48.9146 26.1618 48.9651L26.8862 50.0859C26.9433 50.171 26.9695 50.2414 26.9648 50.2972C26.9601 50.353 26.9318 50.4028 26.8799 50.4466C26.8367 50.4831 26.7832 50.4987 26.7194 50.4933ZM32.6929 52.8393C33.219 52.8836 33.6284 53.0265 33.9212 53.268C34.2226 53.5021 34.4256 53.8083 34.5302 54.1864C34.6435 54.5572 34.6816 54.9618 34.6447 55.4003L34.3484 58.9158C34.3403 59.0115 34.2974 59.0922 34.2196 59.1579C34.1418 59.2235 34.0551 59.2524 33.9594 59.2443C33.8478 59.2349 33.7631 59.1916 33.7054 59.1145C33.6477 59.0374 33.6229 58.951 33.6309 58.8553L33.9242 55.3757C33.9511 55.0568 33.9238 54.7615 33.8423 54.4897C33.7609 54.2179 33.6073 53.9922 33.3816 53.8126C33.1638 53.6337 32.8636 53.5281 32.481 53.4958C32.1382 53.4669 31.8046 53.5191 31.4803 53.6523C31.1639 53.7862 30.899 53.9767 30.6855 54.2236C30.472 54.4705 30.3518 54.7535 30.325 55.0723L30.0317 58.552C30.0236 58.6476 29.9807 58.7283 29.9029 58.794C29.8251 58.8597 29.7384 58.8885 29.6427 58.8805C29.5311 58.8711 29.4464 58.8278 29.3887 58.7507C29.331 58.6736 29.3062 58.5872 29.3142 58.4915L29.7657 53.1345C29.7738 53.0388 29.8127 52.9578 29.8826 52.8915C29.9603 52.8258 30.0511 52.7973 30.1547 52.806C30.2583 52.8148 30.339 52.8577 30.3967 52.9348C30.4624 53.0126 30.4912 53.0993 30.4832 53.195L30.3985 54.1994L30.0872 54.6067C30.1247 54.353 30.2249 54.1165 30.3878 53.8975C30.5595 53.6711 30.7686 53.4759 31.0152 53.3121C31.2625 53.1402 31.5301 53.0143 31.8178 52.9341C32.1142 52.8467 32.4059 52.8151 32.6929 52.8393ZM44.9939 53.9965C45.0975 54.0052 45.1782 54.0482 45.2359 54.1253C45.3016 54.2031 45.3301 54.2938 45.3214 54.3974L44.6643 62.1938C44.6562 62.2894 44.6133 62.3701 44.5355 62.4358C44.4577 62.5015 44.371 62.5303 44.2753 62.5223C44.1717 62.5135 44.087 62.4703 44.0213 62.3925C43.9636 62.3154 43.9387 62.229 43.9468 62.1333L44.2683 58.3188L44.4857 58.1686C44.4669 58.3918 44.3873 58.6219 44.2469 58.8589C44.1071 59.088 43.9169 59.2968 43.6763 59.4852C43.4435 59.6744 43.1743 59.8203 42.8686 59.9229C42.5709 60.0263 42.2546 60.0639 41.9198 60.0357C41.3857 59.9906 40.9152 59.8105 40.5082 59.4952C40.1092 59.1806 39.8063 58.7737 39.5995 58.2746C39.3927 57.7754 39.3152 57.219 39.3669 56.6051C39.418 55.9993 39.5872 55.4676 39.8747 55.0101C40.1628 54.5447 40.5295 54.1943 40.9748 53.9588C41.4209 53.7154 41.9109 53.6162 42.445 53.6613C42.7719 53.6888 43.0777 53.7748 43.3626 53.9192C43.6475 54.0637 43.8928 54.2489 44.0985 54.475C44.3122 54.7017 44.4715 54.956 44.5762 55.2378C44.6895 55.5123 44.7341 55.793 44.7099 56.08L44.4739 55.8795L44.6039 54.337C44.6126 54.2333 44.6519 54.1483 44.7217 54.0819C44.7995 54.0162 44.8902 53.9878 44.9939 53.9965ZM42.036 59.3711C42.4665 59.4074 42.8503 59.3313 43.1873 59.143C43.5329 58.9473 43.8132 58.6699 44.0281 58.3106C44.2517 57.9441 44.384 57.5177 44.425 57.0314C44.4653 56.5531 44.4056 56.1186 44.2458 55.7278C44.0947 55.3297 43.8648 55.0093 43.5561 54.7665C43.2481 54.5157 42.8828 54.3725 42.4603 54.3369C42.0458 54.302 41.6617 54.382 41.3081 54.577C40.9631 54.7647 40.6788 55.0418 40.4553 55.4083C40.2403 55.7675 40.1127 56.1863 40.0724 56.6646C40.0321 57.1429 40.0875 57.5811 40.2386 57.9792C40.3977 58.378 40.6312 58.7027 40.9392 58.9535C41.2559 59.1969 41.6215 59.3361 42.036 59.3711ZM51.798 54.6302C51.9017 54.6389 51.9824 54.6819 52.0401 54.759C52.1058 54.8368 52.1346 54.9235 52.1265 55.0192L51.8423 58.3912C51.7758 59.1804 51.5019 59.7635 51.0205 60.1404C50.5392 60.5173 49.9198 60.6738 49.1625 60.61C48.4132 60.5468 47.8328 60.2892 47.4213 59.837C47.0178 59.3855 46.8493 58.7652 46.9158 57.976L47.2 54.6039C47.2081 54.5083 47.247 54.4273 47.3168 54.3609C47.3946 54.2952 47.4853 54.2667 47.589 54.2754C47.6926 54.2842 47.7733 54.3271 47.831 54.4042C47.8967 54.482 47.9255 54.5687 47.9175 54.6644L47.6333 58.0364C47.5849 58.6104 47.6994 59.0616 47.9768 59.3901C48.2628 59.7112 48.6769 59.8947 49.219 59.9403C49.769 59.9867 50.2119 59.8755 50.5477 59.6068C50.8841 59.33 51.0765 58.9047 51.1249 58.3307L51.4091 54.9587C51.4171 54.863 51.4561 54.782 51.5259 54.7156C51.5957 54.6493 51.6864 54.6208 51.798 54.6302ZM59.0514 55.2054C59.155 55.2141 59.2357 55.2571 59.2934 55.3342C59.3591 55.412 59.3876 55.5027 59.3789 55.6063L58.9254 60.9872C58.9173 61.0829 58.8744 61.1636 58.7966 61.2293C58.7188 61.295 58.6321 61.3238 58.5364 61.3157C58.4328 61.307 58.3481 61.2637 58.2824 61.1859C58.2247 61.1088 58.1998 61.0224 58.2079 60.9268L58.3278 59.5038L58.5392 59.4253C58.5204 59.6485 58.4374 59.8703 58.2904 60.0907C58.1513 60.3119 57.9658 60.513 57.7338 60.6941C57.5017 60.8753 57.2329 61.0172 56.9272 61.1199C56.6301 61.2153 56.3142 61.2489 55.9793 61.2206C55.4373 61.175 54.9627 60.9945 54.5558 60.6792C54.1568 60.3646 53.8542 59.9537 53.6481 59.4466C53.4499 58.9402 53.3764 58.384 53.4274 57.7782C53.4799 57.1564 53.6494 56.6207 53.9362 56.1712C54.2236 55.7137 54.59 55.3673 55.0354 55.1319C55.4807 54.8964 55.9705 54.8012 56.5046 54.8462C56.8473 54.8751 57.1612 54.9618 57.446 55.1062C57.7389 55.2513 57.9882 55.4369 58.1939 55.663C58.3997 55.8891 58.5509 56.1427 58.6476 56.4238C58.753 56.6976 58.7936 56.978 58.7694 57.265L58.5334 57.0645L58.6614 55.5459C58.6702 55.4422 58.7094 55.3572 58.7793 55.2908C58.857 55.2251 58.9478 55.1967 59.0514 55.2054ZM56.0956 60.5561C56.5181 60.5917 56.9018 60.5156 57.2468 60.3279C57.5925 60.1323 57.8731 59.8509 58.0887 59.4837C58.3129 59.1092 58.4452 58.6828 58.4855 58.2045C58.5252 57.7341 58.4651 57.3036 58.3054 56.9128C58.1536 56.5227 57.9237 56.2022 57.6157 55.9515C57.3076 55.7007 56.9424 55.5575 56.5199 55.5219C56.1053 55.487 55.7216 55.563 55.3686 55.75C55.0237 55.9377 54.7397 56.2108 54.5168 56.5694C54.3019 56.9286 54.1739 57.3513 54.1329 57.8376C54.0926 58.3159 54.1477 58.7581 54.2981 59.1642C54.4572 59.5629 54.6907 59.8877 54.9988 60.1385C55.3075 60.3813 55.6731 60.5204 56.0956 60.5561ZM55.911 62.8888C55.7436 62.8747 55.6194 62.8241 55.5384 62.737C55.4648 62.6585 55.434 62.5475 55.4461 62.404L55.4562 62.2845C55.4682 62.141 55.5215 62.0331 55.6159 61.9607C55.7176 61.8971 55.8442 61.8716 55.9957 61.8844C56.1551 61.8978 56.2716 61.9437 56.3453 62.0222C56.4263 62.1093 56.4607 62.2246 56.4486 62.3681L56.4386 62.4877C56.4265 62.6312 56.3735 62.7351 56.2798 62.7995C56.1934 62.8725 56.0704 62.9022 55.911 62.8888ZM56.9197 53.2073L55.8058 53.9925C55.746 54.0357 55.6908 54.0712 55.6403 54.099C55.5977 54.1275 55.5446 54.1391 55.4808 54.1337C55.425 54.129 55.3788 54.1051 55.3423 54.0619C55.3058 54.0186 55.2896 53.9731 55.2936 53.9253C55.2963 53.8934 55.303 53.8618 55.3136 53.8306C55.3323 53.8001 55.3629 53.7705 55.4054 53.742L56.3589 52.859C56.4581 52.7309 56.5953 52.6742 56.7707 52.689L56.962 52.7051C57.0497 52.7125 57.1201 52.7345 57.1732 52.7711C57.235 52.8004 57.2864 52.8569 57.3275 52.9406L58.1088 53.9578C58.1374 54.0004 58.1543 54.0379 58.1596 54.0705C58.1735 54.0957 58.1788 54.1283 58.1754 54.1682C58.1721 54.208 58.1488 54.2462 58.1055 54.2827C58.0703 54.3199 58.0248 54.3361 57.969 54.3314C57.9052 54.326 57.8507 54.3054 57.8056 54.2695C57.7605 54.2335 57.712 54.1893 57.6602 54.1368L56.6676 53.1981L56.9197 53.2073ZM65.8577 55.6707C65.9613 55.6794 66.042 55.7223 66.0997 55.7995C66.1654 55.8773 66.1943 55.964 66.1862 56.0596L65.7417 61.3329C65.6873 61.9787 65.5141 62.51 65.222 62.9269C64.9293 63.3518 64.5583 63.6578 64.109 63.8447C63.6591 64.0396 63.1591 64.1139 62.609 64.0675C62.2662 64.0386 61.9507 63.9719 61.6625 63.8673C61.3815 63.7714 61.1544 63.6559 60.9812 63.5209C60.8902 63.457 60.8242 63.3832 60.7831 63.2994C60.742 63.2157 60.745 63.1316 60.7923 63.0473C60.8415 62.9391 60.9077 62.8684 60.9908 62.8352C61.0812 62.8107 61.1685 62.8221 61.2528 62.8694C61.3823 62.9525 61.5702 63.0567 61.8166 63.1818C62.063 63.307 62.3496 63.3833 62.6764 63.4108C63.1148 63.4478 63.5012 63.388 63.8356 63.2316C64.1779 63.0758 64.4515 62.8299 64.6564 62.4939C64.8607 62.1659 64.983 61.7627 65.0233 61.2844L65.0958 60.4235L65.1554 60.7175C65.015 60.9546 64.8251 61.1593 64.5858 61.3319C64.3544 61.505 64.0905 61.6353 63.7941 61.7227C63.5064 61.8029 63.2031 61.8295 62.8842 61.8026C62.4059 61.7623 62.0154 61.633 61.7126 61.4148C61.4185 61.1893 61.2102 60.8988 61.0876 60.5433C60.9651 60.1877 60.9233 59.7788 60.9622 59.3164L61.2716 55.6454C61.2797 55.5498 61.3186 55.4687 61.3884 55.4024C61.4583 55.336 61.549 55.3075 61.6606 55.3169C61.7642 55.3257 61.8449 55.3686 61.9026 55.4457C61.9683 55.5235 61.9971 55.6102 61.9891 55.7059L61.6887 59.2693C61.6417 59.8273 61.725 60.2678 61.9386 60.5909C62.1602 60.9147 62.546 61.0997 63.0961 61.1461C63.4389 61.175 63.7605 61.1218 64.0609 60.9866C64.362 60.8433 64.6153 60.6479 64.8208 60.4003C65.027 60.1447 65.1429 59.8655 65.1684 59.5625L65.4687 55.9992C65.4768 55.9035 65.5157 55.8225 65.5856 55.7561C65.6634 55.6904 65.7541 55.6619 65.8577 55.6707ZM74.2684 56.4398C74.8105 56.4855 75.2774 56.6613 75.669 56.9673C76.0694 57.2659 76.3733 57.6609 76.5808 58.152C76.7889 58.6352 76.8675 59.1797 76.8164 59.7856C76.7653 60.3914 76.5964 60.9191 76.3096 61.3686C76.0229 61.8181 75.6568 62.1606 75.2115 62.396C74.7661 62.6315 74.2804 62.727 73.7543 62.6826C73.4753 62.6591 73.2116 62.5968 72.9632 62.4955C72.7234 62.387 72.506 62.2523 72.3108 62.0913C72.1157 61.9304 71.9464 61.7475 71.8031 61.5428C71.6605 61.33 71.5511 61.104 71.4749 60.8648L71.7032 60.7275L71.3898 64.4463C71.3817 64.542 71.3388 64.6226 71.261 64.6883C71.1912 64.7547 71.1045 64.7835 71.0008 64.7748C70.8972 64.7661 70.8125 64.7228 70.7468 64.645C70.6891 64.5679 70.6643 64.4815 70.6723 64.3858L71.3294 56.5895C71.3382 56.4858 71.3774 56.4008 71.4473 56.3345C71.5171 56.2681 71.6078 56.2396 71.7194 56.249C71.823 56.2578 71.9037 56.3007 71.9614 56.3778C72.0271 56.4556 72.0556 56.5463 72.0469 56.6499L71.938 57.9414L71.7787 57.8316C71.8792 57.5912 72.0133 57.3817 72.1809 57.2031C72.3571 57.0173 72.5546 56.8653 72.7733 56.7473C72.9926 56.6213 73.2289 56.5328 73.4821 56.4819C73.7352 56.431 73.9974 56.4169 74.2684 56.4398ZM74.1522 57.1044C73.7217 57.0681 73.334 57.1438 72.989 57.3315C72.6447 57.5112 72.3614 57.7763 72.1392 58.1269C71.9256 58.4702 71.7986 58.881 71.7583 59.3593C71.7187 59.8296 71.7747 60.2598 71.9265 60.65C72.0863 61.0408 72.3205 61.3576 72.6292 61.6003C72.9386 61.8351 73.3085 61.9707 73.739 62.007C74.1615 62.0426 74.5409 61.9702 74.8772 61.7898C75.2222 61.6021 75.5061 61.329 75.729 60.9705C75.9519 60.6119 76.0832 60.1975 76.1229 59.7271C76.1625 59.2568 76.1021 58.8302 75.9417 58.4474C75.7813 58.0646 75.5464 57.7558 75.237 57.5209C74.9363 57.2788 74.5747 57.14 74.1522 57.1044ZM81.4004 57.0409C81.9027 57.0832 82.3002 57.2251 82.5929 57.4665C82.8857 57.708 83.0883 58.0181 83.2009 58.3969C83.3215 58.7764 83.3629 59.1893 83.3253 59.6357L83.0401 63.0197C83.032 63.1154 82.9891 63.1961 82.9113 63.2618C82.8335 63.3275 82.7468 63.3563 82.6511 63.3482C82.5395 63.3388 82.4549 63.2955 82.3971 63.2184C82.3394 63.1413 82.3146 63.0549 82.3226 62.9592L82.6079 59.5752C82.6354 59.2484 82.6085 58.9491 82.527 58.6773C82.4535 58.4062 82.3115 58.1854 82.1011 58.0152C81.8913 57.8369 81.5991 57.732 81.2244 57.7004C80.8896 57.6722 80.564 57.7251 80.2477 57.859C79.9399 57.9856 79.6833 58.1727 79.4778 58.4203C79.2723 58.6679 79.1557 58.9551 79.1282 59.282L78.843 62.666C78.8349 62.7616 78.792 62.8423 78.7142 62.908C78.6364 62.9737 78.5497 63.0025 78.454 62.9945C78.3424 62.9851 78.2578 62.9418 78.2 62.8647C78.1423 62.7876 78.1175 62.7012 78.1255 62.6055L78.8109 54.4743C78.8189 54.3787 78.8579 54.2977 78.9277 54.2313C79.0055 54.1656 79.0962 54.1371 79.1998 54.1458C79.3034 54.1546 79.3841 54.1975 79.4419 54.2746C79.5076 54.3524 79.5364 54.4391 79.5283 54.5348L79.2018 58.4091L78.8915 58.8044C78.9282 58.5586 79.0241 58.3258 79.1791 58.1061C79.3428 57.879 79.5439 57.6832 79.7826 57.5187C80.0219 57.3462 80.2815 57.2195 80.5613 57.1388C80.8417 57.05 81.1214 57.0174 81.4004 57.0409ZM90.4167 57.849C90.5204 57.8577 90.6011 57.9006 90.6588 57.9778C90.7245 58.0556 90.753 58.1463 90.7442 58.2499L90.2907 63.6308C90.2826 63.7265 90.2397 63.8072 90.1619 63.8729C90.0841 63.9386 89.9974 63.9674 89.9017 63.9593C89.7981 63.9506 89.7134 63.9073 89.6477 63.8295C89.59 63.7524 89.5652 63.666 89.5733 63.5704L89.6932 62.1474L89.9045 62.0689C89.8857 62.2921 89.8028 62.5139 89.6558 62.7343C89.5167 62.9554 89.3311 63.1566 89.0991 63.3377C88.8671 63.5189 88.5982 63.6608 88.2925 63.7635C87.9954 63.8589 87.6795 63.8924 87.3447 63.8642C86.8026 63.8185 86.3281 63.638 85.9211 63.3228C85.5222 63.0081 85.2196 62.5973 85.0135 62.0902C84.8153 61.5837 84.7417 61.0276 84.7928 60.4217C84.8452 59.7999 85.0148 59.2643 85.3016 58.8148C85.589 58.3573 85.9554 58.0109 86.4007 57.7754C86.8461 57.54 87.3358 57.4448 87.8699 57.4898C88.2127 57.5187 88.5265 57.6054 88.8114 57.7498C89.1043 57.8949 89.3535 58.0805 89.5593 58.3066C89.765 58.5327 89.9163 58.7863 90.013 59.0674C90.1184 59.3412 90.159 59.6216 90.1348 59.9086L89.8988 59.708L90.0268 58.1894C90.0355 58.0858 90.0748 58.0008 90.1446 57.9344C90.2224 57.8687 90.3131 57.8402 90.4167 57.849ZM87.4609 63.1996C87.8834 63.2352 88.2672 63.1592 88.6122 62.9715C88.9578 62.7759 89.2384 62.4944 89.454 62.1272C89.6783 61.7528 89.8106 61.3264 89.8509 60.8481C89.8905 60.3777 89.8305 59.9472 89.6707 59.5564C89.5189 59.1662 89.289 58.8458 88.981 58.595C88.673 58.3443 88.3077 58.2011 87.8852 58.1655C87.4707 58.1305 87.0869 58.2066 86.734 58.3936C86.389 58.5813 86.1051 58.8544 85.8822 59.213C85.6672 59.5722 85.5393 59.9949 85.4983 60.4812C85.458 60.9595 85.513 61.4017 85.6635 61.8078C85.8225 62.2065 86.0561 62.5313 86.3641 62.782C86.6728 63.0248 87.0384 63.164 87.4609 63.1996ZM87.8872 57.142C87.8473 57.1387 87.8052 57.1151 87.7607 57.0712C87.7249 57.02 87.7093 56.9665 87.714 56.9107C87.718 56.8628 87.7427 56.8087 87.7879 56.7483L88.6131 55.6738C88.6583 55.6134 88.7151 55.558 88.7836 55.5075C88.8601 55.4578 88.9461 55.4369 89.0418 55.445C89.1614 55.4551 89.2543 55.495 89.3207 55.5649C89.3871 55.6347 89.4112 55.729 89.3932 55.8479C89.3885 55.9037 89.3722 55.9546 89.3442 56.0004C89.3249 56.0389 89.2936 56.0764 89.2504 56.1129L88.274 56.982C88.2215 57.0337 88.1616 57.0769 88.0945 57.1113C88.028 57.1378 87.9589 57.1481 87.8872 57.142Z" fill="#1F2937"/>
</g>
<defs>
<filter id="filter0_d_155_808" x="-0.401855" y="0" width="113.778" height="89.1407" filterUnits="userSpaceOnUse" color-interpolation-filters="sRGB">
<feFlood flood-opacity="0" result="BackgroundImageFix"/>
<feColorMatrix in="SourceAlpha" type="matrix" values="0 0 0 0 0 0 0 0 0 0 0 0 0 0 0 0 0 0 127 0" result="hardAlpha"/>
<feOffset dy="4"/>
<feGaussianBlur stdDeviation="2"/>
<feComposite in2="hardAlpha" operator="out"/>
<feColorMatrix type="matrix" values="0 0 0 0 0 0 0 0 0 0 0 0 0 0 0 0 0 0 0.25 0"/>
<feBlend mode="normal" in2="BackgroundImageFix" result="effect1_dropShadow_155_808"/>
<feBlend mode="normal" in="SourceGraphic" in2="effect1_dropShadow_155_808" result="shape"/>
</filter>
<linearGradient id="paint0_linear_155_808" x1="9.729" y1="-4" x2="109.729" y2="73" gradientUnits="userSpaceOnUse">
<stop stop-color="#FCB058"/>
<stop offset="0.4375" stop-color="#DC9643"/>
<stop offset="0.730769" stop-color="#C07E31"/>
<stop offset="1" stop-color="#A65900"/>
</linearGradient>
</defs>
</svg>
