<svg width="108" height="81" viewBox="0 0 108 81" fill="none" xmlns="http://www.w3.org/2000/svg">
<g filter="url(#filter0_d_155_809)">
<rect x="4" width="100" height="73" rx="5" fill="white" shape-rendering="crispEdges"/>
<rect x="4.5" y="0.5" width="99" height="72" rx="4.5" stroke="url(#paint0_linear_155_809)" shape-rendering="crispEdges"/>
<g opacity="0.8">
<path d="M33.6937 17.8838C34.2299 19.4925 33.6824 21.1163 32.4712 21.5138C31.2599 21.9113 29.8424 20.9288 29.3062 19.32C28.7699 17.7113 29.3174 16.0875 30.5287 15.69C31.7399 15.2925 33.1574 16.275 33.6937 17.8838ZM28.6649 21.8475C29.3737 23.0625 29.2012 24.4763 28.2824 25.0013C27.3637 25.5263 26.0437 24.9675 25.3387 23.7525C24.6337 22.5375 24.8024 21.1238 25.7212 20.5988C26.6399 20.0738 27.9599 20.6325 28.6649 21.8475ZM27.4949 29.445C29.4599 24.1463 32.9512 22.8 34.4999 22.8C36.0487 22.8 39.5399 24.1463 41.5049 29.445C41.6399 29.8088 41.6999 30.1988 41.6999 30.5888V30.6488C41.6999 31.6163 40.9162 32.4 39.9487 32.4C39.5174 32.4 39.0899 32.3475 38.6737 32.2425L35.3737 31.4175C34.7999 31.275 34.1999 31.275 33.6262 31.4175L30.3262 32.2425C29.9099 32.3475 29.4824 32.4 29.0512 32.4C28.0837 32.4 27.2999 31.6163 27.2999 30.6488V30.5888C27.2999 30.1988 27.3599 29.8088 27.4949 29.445ZM40.7174 25.0013C39.7987 24.4763 39.6262 23.0625 40.3349 21.8475C41.0437 20.6325 42.3599 20.0738 43.2787 20.5988C44.1974 21.1238 44.3699 22.5375 43.6612 23.7525C42.9524 24.9675 41.6362 25.5263 40.7174 25.0013ZM36.5287 21.5138C35.3174 21.1163 34.7699 19.4925 35.3062 17.8838C35.8424 16.275 37.2599 15.2925 38.4712 15.69C39.6824 16.0875 40.2299 17.7113 39.6937 19.32C39.1574 20.9288 37.7399 21.9113 36.5287 21.5138Z" fill="#E8840F"/>
</g>
<path opacity="0.8" d="M54.0477 29.5C53.8677 29.5 53.7177 29.44 53.5977 29.32C53.4777 29.2 53.4177 29.055 53.4177 28.885V20.35L53.5977 20.56L51.9027 21.73C51.8027 21.8 51.6877 21.835 51.5577 21.835C51.3877 21.835 51.2427 21.775 51.1227 21.655C51.0027 21.525 50.9427 21.38 50.9427 21.22C50.9427 21 51.0477 20.825 51.2577 20.695L53.6427 19.12C53.7227 19.07 53.8027 19.035 53.8827 19.015C53.9627 18.995 54.0427 18.99 54.1227 19C54.3027 19 54.4427 19.06 54.5427 19.18C54.6527 19.29 54.7077 19.43 54.7077 19.6V28.885C54.7077 29.055 54.6427 29.2 54.5127 29.32C54.3927 29.44 54.2377 29.5 54.0477 29.5ZM61.8023 24.205L61.7723 23.995C62.1223 24.145 62.4373 24.35 62.7173 24.61C62.9973 24.87 63.2173 25.17 63.3773 25.51C63.5473 25.84 63.6323 26.2 63.6323 26.59C63.6323 27.13 63.4823 27.63 63.1823 28.09C62.8923 28.54 62.4923 28.9 61.9823 29.17C61.4823 29.44 60.9223 29.575 60.3023 29.575C59.6823 29.575 59.1223 29.44 58.6223 29.17C58.1223 28.9 57.7223 28.54 57.4223 28.09C57.1323 27.63 56.9873 27.13 56.9873 26.59C56.9873 26.14 57.0773 25.745 57.2573 25.405C57.4473 25.065 57.6823 24.775 57.9623 24.535C58.2523 24.295 58.5523 24.105 58.8623 23.965L58.7873 24.205C58.5273 24.095 58.2773 23.935 58.0373 23.725C57.8073 23.505 57.6173 23.245 57.4673 22.945C57.3173 22.635 57.2423 22.285 57.2423 21.895C57.2423 21.355 57.3773 20.865 57.6473 20.425C57.9173 19.985 58.2873 19.64 58.7573 19.39C59.2273 19.13 59.7423 19 60.3023 19C60.8723 19 61.3873 19.13 61.8473 19.39C62.3073 19.64 62.6723 19.985 62.9423 20.425C63.2223 20.865 63.3623 21.355 63.3623 21.895C63.3623 22.305 63.2823 22.665 63.1223 22.975C62.9623 23.275 62.7623 23.53 62.5223 23.74C62.2923 23.94 62.0523 24.095 61.8023 24.205ZM58.4573 21.91C58.4573 22.27 58.5373 22.585 58.6973 22.855C58.8673 23.125 59.0923 23.34 59.3723 23.5C59.6623 23.65 59.9723 23.725 60.3023 23.725C60.6423 23.725 60.9473 23.65 61.2173 23.5C61.4973 23.34 61.7223 23.125 61.8923 22.855C62.0623 22.585 62.1473 22.27 62.1473 21.91C62.1473 21.39 61.9723 20.965 61.6223 20.635C61.2823 20.295 60.8423 20.125 60.3023 20.125C59.7623 20.125 59.3173 20.295 58.9673 20.635C58.6273 20.965 58.4573 21.39 58.4573 21.91ZM60.3023 28.45C60.9223 28.45 61.4273 28.27 61.8173 27.91C62.2173 27.55 62.4173 27.105 62.4173 26.575C62.4173 26.205 62.3223 25.88 62.1323 25.6C61.9423 25.31 61.6873 25.085 61.3673 24.925C61.0473 24.755 60.6923 24.67 60.3023 24.67C59.9223 24.67 59.5723 24.755 59.2523 24.925C58.9323 25.085 58.6773 25.31 58.4873 25.6C58.2973 25.88 58.2023 26.205 58.2023 26.575C58.2023 27.105 58.3973 27.55 58.7873 27.91C59.1873 28.27 59.6923 28.45 60.3023 28.45ZM71.4168 28.375C71.5768 28.375 71.7118 28.43 71.8218 28.54C71.9318 28.65 71.9868 28.785 71.9868 28.945C71.9868 29.105 71.9318 29.24 71.8218 29.35C71.7118 29.45 71.5768 29.5 71.4168 29.5H65.9718C65.7918 29.5 65.6418 29.45 65.5218 29.35C65.4118 29.24 65.3568 29.095 65.3568 28.915C65.3568 28.755 65.4168 28.61 65.5368 28.48L68.9268 24.775C69.4268 24.235 69.8018 23.73 70.0518 23.26C70.3118 22.78 70.4418 22.355 70.4418 21.985C70.4418 21.375 70.2568 20.89 69.8868 20.53C69.5268 20.16 69.0418 19.975 68.4318 19.975C68.1618 19.975 67.8918 20.035 67.6218 20.155C67.3518 20.265 67.1068 20.42 66.8868 20.62C66.6668 20.81 66.4868 21.025 66.3468 21.265C66.2668 21.395 66.1818 21.48 66.0918 21.52C66.0118 21.55 65.9268 21.565 65.8368 21.565C65.6868 21.565 65.5518 21.515 65.4318 21.415C65.3118 21.305 65.2518 21.18 65.2518 21.04C65.2518 20.93 65.2818 20.83 65.3418 20.74C65.4018 20.64 65.4818 20.53 65.5818 20.41C65.7918 20.12 66.0518 19.86 66.3618 19.63C66.6818 19.39 67.0268 19.2 67.3968 19.06C67.7768 18.92 68.1468 18.85 68.5068 18.85C69.1468 18.85 69.7018 18.975 70.1718 19.225C70.6518 19.475 71.0218 19.83 71.2818 20.29C71.5418 20.75 71.6718 21.29 71.6718 21.91C71.6718 22.44 71.5118 23.025 71.1918 23.665C70.8718 24.305 70.4018 24.955 69.7818 25.615L67.1568 28.525L67.0068 28.375H71.4168ZM78.1516 25.075C77.9816 25.075 77.8416 25.02 77.7316 24.91C77.6216 24.8 77.5666 24.665 77.5666 24.505C77.5666 24.345 77.6216 24.215 77.7316 24.115C77.8416 24.005 77.9816 23.95 78.1516 23.95H84.3016C84.4716 23.95 84.6116 24.005 84.7216 24.115C84.8316 24.225 84.8866 24.36 84.8866 24.52C84.8866 24.68 84.8316 24.815 84.7216 24.925C84.6116 25.025 84.4716 25.075 84.3016 25.075H78.1516ZM81.2116 28.21C81.0316 28.21 80.8766 28.15 80.7466 28.03C80.6266 27.91 80.5666 27.76 80.5666 27.58V21.385C80.5666 21.195 80.6266 21.04 80.7466 20.92C80.8766 20.8 81.0366 20.74 81.2266 20.74C81.4166 20.74 81.5666 20.8 81.6766 20.92C81.7966 21.04 81.8566 21.195 81.8566 21.385V27.565C81.8566 27.755 81.7966 27.91 81.6766 28.03C81.5566 28.15 81.4016 28.21 81.2116 28.21Z" fill="#E8840F"/>
<path opacity="0.8" d="M17.6505 50.724C18.1785 50.724 18.5985 50.832 18.9105 51.048C19.2305 51.256 19.4585 51.544 19.5945 51.912C19.7385 52.272 19.8105 52.672 19.8105 53.112V56.64C19.8105 56.736 19.7745 56.82 19.7025 56.892C19.6305 56.964 19.5465 57 19.4505 57C19.3385 57 19.2505 56.964 19.1865 56.892C19.1225 56.82 19.0905 56.736 19.0905 56.64V53.148C19.0905 52.828 19.0385 52.536 18.9345 52.272C18.8305 52.008 18.6585 51.796 18.4185 51.636C18.1865 51.476 17.8785 51.396 17.4945 51.396C17.1505 51.396 16.8225 51.476 16.5105 51.636C16.2065 51.796 15.9585 52.008 15.7665 52.272C15.5745 52.536 15.4785 52.828 15.4785 53.148V56.64C15.4785 56.736 15.4425 56.82 15.3705 56.892C15.2985 56.964 15.2145 57 15.1185 57C15.0065 57 14.9185 56.964 14.8545 56.892C14.7905 56.82 14.7585 56.736 14.7585 56.64V51.264C14.7585 51.168 14.7905 51.084 14.8545 51.012C14.9265 50.94 15.0145 50.904 15.1185 50.904C15.2225 50.904 15.3065 50.94 15.3705 51.012C15.4425 51.084 15.4785 51.168 15.4785 51.264V52.272L15.2025 52.704C15.2185 52.448 15.2985 52.204 15.4425 51.972C15.5945 51.732 15.7865 51.52 16.0185 51.336C16.2505 51.144 16.5065 50.996 16.7865 50.892C17.0745 50.78 17.3625 50.724 17.6505 50.724ZM24.252 50.724C24.612 50.724 24.944 50.788 25.248 50.916C25.552 51.036 25.816 51.196 26.04 51.396C26.272 51.588 26.452 51.796 26.58 52.02C26.708 52.236 26.772 52.444 26.772 52.644L26.568 52.356V51.24C26.568 51.136 26.6 51.048 26.664 50.976C26.736 50.904 26.824 50.868 26.928 50.868C27.04 50.868 27.128 50.904 27.192 50.976C27.256 51.048 27.288 51.136 27.288 51.24V56.436C27.288 57.076 27.156 57.616 26.892 58.056C26.628 58.496 26.268 58.828 25.812 59.052C25.364 59.284 24.852 59.4 24.276 59.4C23.996 59.4 23.7 59.364 23.388 59.292C23.084 59.22 22.82 59.128 22.596 59.016C22.38 58.904 22.26 58.788 22.236 58.668C22.172 58.596 22.14 58.524 22.14 58.452C22.148 58.388 22.184 58.332 22.248 58.284C22.328 58.228 22.412 58.22 22.5 58.26C22.588 58.308 22.72 58.368 22.896 58.44C22.976 58.464 23.084 58.5 23.22 58.548C23.356 58.596 23.516 58.636 23.7 58.668C23.892 58.708 24.092 58.728 24.3 58.728C25.02 58.728 25.576 58.52 25.968 58.104C26.368 57.696 26.568 57.156 26.568 56.484V55.332L26.7 55.368C26.628 55.656 26.508 55.908 26.34 56.124C26.18 56.34 25.988 56.524 25.764 56.676C25.54 56.82 25.296 56.928 25.032 57C24.776 57.08 24.52 57.12 24.264 57.12C23.712 57.12 23.216 56.98 22.776 56.7C22.336 56.42 21.984 56.04 21.72 55.56C21.464 55.08 21.336 54.532 21.336 53.916C21.336 53.308 21.464 52.764 21.72 52.284C21.984 51.796 22.332 51.416 22.764 51.144C23.204 50.864 23.7 50.724 24.252 50.724ZM24.336 51.396C23.896 51.396 23.5 51.508 23.148 51.732C22.804 51.948 22.532 52.248 22.332 52.632C22.14 53.008 22.044 53.436 22.044 53.916C22.044 54.396 22.14 54.828 22.332 55.212C22.532 55.596 22.804 55.9 23.148 56.124C23.5 56.34 23.896 56.448 24.336 56.448C24.776 56.448 25.168 56.34 25.512 56.124C25.856 55.908 26.128 55.612 26.328 55.236C26.528 54.852 26.628 54.412 26.628 53.916C26.628 53.42 26.528 52.984 26.328 52.608C26.128 52.224 25.856 51.928 25.512 51.72C25.168 51.504 24.776 51.396 24.336 51.396ZM34.1537 50.868C34.2577 50.868 34.3417 50.904 34.4057 50.976C34.4777 51.048 34.5137 51.136 34.5137 51.24V56.64C34.5137 56.736 34.4777 56.82 34.4057 56.892C34.3337 56.964 34.2497 57 34.1537 57C34.0497 57 33.9617 56.964 33.8897 56.892C33.8257 56.82 33.7937 56.736 33.7937 56.64V55.212L33.9977 55.116C33.9977 55.34 33.9337 55.568 33.8057 55.8C33.6857 56.032 33.5177 56.248 33.3017 56.448C33.0857 56.648 32.8297 56.812 32.5337 56.94C32.2457 57.06 31.9337 57.12 31.5977 57.12C31.0537 57.12 30.5657 56.98 30.1337 56.7C29.7097 56.42 29.3737 56.036 29.1257 55.548C28.8857 55.06 28.7657 54.512 28.7657 53.904C28.7657 53.28 28.8897 52.732 29.1377 52.26C29.3857 51.78 29.7217 51.404 30.1457 51.132C30.5697 50.86 31.0497 50.724 31.5857 50.724C31.9297 50.724 32.2497 50.784 32.5457 50.904C32.8497 51.024 33.1137 51.188 33.3377 51.396C33.5617 51.604 33.7337 51.844 33.8537 52.116C33.9817 52.38 34.0457 52.656 34.0457 52.944L33.7937 52.764V51.24C33.7937 51.136 33.8257 51.048 33.8897 50.976C33.9617 50.904 34.0497 50.868 34.1537 50.868ZM31.6577 56.448C32.0817 56.448 32.4577 56.34 32.7857 56.124C33.1137 55.9 33.3697 55.596 33.5537 55.212C33.7457 54.82 33.8417 54.384 33.8417 53.904C33.8417 53.432 33.7457 53.008 33.5537 52.632C33.3697 52.256 33.1137 51.956 32.7857 51.732C32.4577 51.508 32.0817 51.396 31.6577 51.396C31.2417 51.396 30.8657 51.504 30.5297 51.72C30.2017 51.936 29.9417 52.232 29.7497 52.608C29.5657 52.984 29.4737 53.416 29.4737 53.904C29.4737 54.384 29.5657 54.82 29.7497 55.212C29.9417 55.596 30.2017 55.9 30.5297 56.124C30.8577 56.34 31.2337 56.448 31.6577 56.448ZM31.7537 50.304C31.6977 50.304 31.6417 50.288 31.5857 50.256C31.5377 50.224 31.4937 50.188 31.4537 50.148L30.5057 49.284C30.4577 49.236 30.4177 49.188 30.3857 49.14C30.3537 49.092 30.3377 49.036 30.3377 48.972C30.3377 48.86 30.3737 48.772 30.4457 48.708C30.5177 48.644 30.6017 48.612 30.6977 48.612C30.7857 48.612 30.8617 48.636 30.9257 48.684C30.9897 48.732 31.0377 48.78 31.0697 48.828L31.8857 49.884C31.9497 49.964 31.9817 50.032 31.9817 50.088C31.9817 50.144 31.9577 50.196 31.9097 50.244C31.8697 50.284 31.8177 50.304 31.7537 50.304ZM40.9751 50.76C41.0791 50.76 41.1631 50.796 41.2271 50.868C41.2991 50.94 41.3351 51.024 41.3351 51.12V56.412C41.3351 57.06 41.2071 57.604 40.9511 58.044C40.6951 58.492 40.3511 58.828 39.9191 59.052C39.4871 59.284 38.9951 59.4 38.4431 59.4C38.0991 59.4 37.7791 59.36 37.4831 59.28C37.1951 59.208 36.9591 59.112 36.7751 58.992C36.6791 58.936 36.6071 58.868 36.5591 58.788C36.5111 58.708 36.5071 58.624 36.5471 58.536C36.5871 58.424 36.6471 58.348 36.7271 58.308C36.8151 58.276 36.9031 58.28 36.9911 58.32C37.1271 58.392 37.3231 58.48 37.5791 58.584C37.8351 58.688 38.1271 58.74 38.4551 58.74C38.8951 58.74 39.2751 58.648 39.5951 58.464C39.9231 58.28 40.1751 58.012 40.3511 57.66C40.5271 57.316 40.6151 56.904 40.6151 56.424V55.56L40.6991 55.848C40.5791 56.096 40.4071 56.316 40.1831 56.508C39.9671 56.7 39.7151 56.852 39.4271 56.964C39.1471 57.068 38.8471 57.12 38.5271 57.12C38.0471 57.12 37.6471 57.024 37.3271 56.832C37.0151 56.632 36.7831 56.36 36.6311 56.016C36.4791 55.672 36.4031 55.268 36.4031 54.804V51.12C36.4031 51.024 36.4351 50.94 36.4991 50.868C36.5631 50.796 36.6511 50.76 36.7631 50.76C36.8671 50.76 36.9511 50.796 37.0151 50.868C37.0871 50.94 37.1231 51.024 37.1231 51.12V54.696C37.1231 55.256 37.2431 55.688 37.4831 55.992C37.7311 56.296 38.1311 56.448 38.6831 56.448C39.0271 56.448 39.3431 56.368 39.6311 56.208C39.9191 56.04 40.1551 55.824 40.3391 55.56C40.5231 55.288 40.6151 55 40.6151 54.696V51.12C40.6151 51.024 40.6471 50.94 40.7111 50.868C40.7831 50.796 40.8711 50.76 40.9751 50.76ZM47.2966 56.64C47.2966 56.736 47.2606 56.82 47.1886 56.892C47.1166 56.964 47.0326 57 46.9366 57C46.8326 57 46.7446 56.964 46.6726 56.892C46.6086 56.82 46.5766 56.736 46.5766 56.64V48.48C46.5766 48.384 46.6126 48.3 46.6846 48.228C46.7566 48.156 46.8406 48.12 46.9366 48.12C47.0406 48.12 47.1246 48.156 47.1886 48.228C47.2606 48.3 47.2966 48.384 47.2966 48.48V56.64ZM54.9823 53.928C54.9823 54.536 54.8503 55.084 54.5863 55.572C54.3223 56.052 53.9623 56.432 53.5063 56.712C53.0503 56.984 52.5303 57.12 51.9463 57.12C51.3783 57.12 50.8623 56.984 50.3983 56.712C49.9423 56.432 49.5783 56.052 49.3063 55.572C49.0423 55.084 48.9103 54.536 48.9103 53.928C48.9103 53.312 49.0423 52.764 49.3063 52.284C49.5783 51.804 49.9423 51.424 50.3983 51.144C50.8623 50.864 51.3783 50.724 51.9463 50.724C52.5303 50.724 53.0503 50.864 53.5063 51.144C53.9623 51.424 54.3223 51.804 54.5863 52.284C54.8503 52.764 54.9823 53.312 54.9823 53.928ZM54.2623 53.928C54.2623 53.44 54.1623 53.008 53.9623 52.632C53.7623 52.248 53.4863 51.948 53.1343 51.732C52.7903 51.508 52.3943 51.396 51.9463 51.396C51.5143 51.396 51.1223 51.508 50.7703 51.732C50.4183 51.948 50.1383 52.248 49.9303 52.632C49.7303 53.008 49.6303 53.44 49.6303 53.928C49.6303 54.416 49.7303 54.848 49.9303 55.224C50.1383 55.6 50.4183 55.9 50.7703 56.124C51.1223 56.34 51.5143 56.448 51.9463 56.448C52.3943 56.448 52.7903 56.34 53.1343 56.124C53.4863 55.9 53.7623 55.6 53.9623 55.224C54.1623 54.848 54.2623 54.416 54.2623 53.928ZM52.0783 48.972L51.0343 49.848C50.9783 49.896 50.9263 49.936 50.8783 49.968C50.8383 50 50.7863 50.016 50.7223 50.016C50.6663 50.016 50.6183 49.996 50.5783 49.956C50.5383 49.916 50.5183 49.872 50.5183 49.824C50.5183 49.792 50.5223 49.76 50.5303 49.728C50.5463 49.696 50.5743 49.664 50.6143 49.632L51.4903 48.672C51.5783 48.536 51.7103 48.468 51.8863 48.468H52.0783C52.1663 48.468 52.2383 48.484 52.2943 48.516C52.3583 48.54 52.4143 48.592 52.4623 48.672L53.3263 49.62C53.3583 49.66 53.3783 49.696 53.3863 49.728C53.4023 49.752 53.4103 49.784 53.4103 49.824C53.4103 49.864 53.3903 49.904 53.3503 49.944C53.3183 49.984 53.2743 50.004 53.2183 50.004C53.1543 50.004 53.0983 49.988 53.0503 49.956C53.0023 49.924 52.9503 49.884 52.8943 49.836L51.8263 48.984L52.0783 48.972ZM59.2725 50.82C59.7685 50.82 60.1925 50.952 60.5445 51.216C60.8965 51.472 61.1365 51.856 61.2645 52.368L61.0965 52.416L61.1685 52.2C61.2725 51.96 61.4445 51.736 61.6845 51.528C61.9325 51.312 62.2125 51.14 62.5245 51.012C62.8365 50.884 63.1525 50.82 63.4725 50.82C63.9765 50.82 64.3805 50.928 64.6845 51.144C64.9965 51.36 65.2205 51.652 65.3565 52.02C65.5005 52.38 65.5725 52.788 65.5725 53.244V56.64C65.5725 56.736 65.5365 56.82 65.4645 56.892C65.4005 56.964 65.3165 57 65.2125 57C65.1085 57 65.0205 56.964 64.9485 56.892C64.8845 56.82 64.8525 56.736 64.8525 56.64V53.28C64.8525 52.952 64.8005 52.652 64.6965 52.38C64.5925 52.108 64.4285 51.892 64.2045 51.732C63.9805 51.572 63.6805 51.492 63.3045 51.492C62.9765 51.492 62.6605 51.572 62.3565 51.732C62.0605 51.892 61.8165 52.108 61.6245 52.38C61.4405 52.652 61.3485 52.952 61.3485 53.28V56.64C61.3485 56.736 61.3125 56.82 61.2405 56.892C61.1765 56.964 61.0925 57 60.9885 57C60.8845 57 60.7965 56.964 60.7245 56.892C60.6605 56.82 60.6285 56.736 60.6285 56.64V53.244C60.6285 52.916 60.5805 52.62 60.4845 52.356C60.3885 52.092 60.2325 51.884 60.0165 51.732C59.8005 51.572 59.5085 51.492 59.1405 51.492C58.8125 51.492 58.5005 51.572 58.2045 51.732C57.9165 51.884 57.6805 52.092 57.4965 52.356C57.3205 52.62 57.2325 52.916 57.2325 53.244V56.64C57.2325 56.736 57.1965 56.82 57.1245 56.892C57.0525 56.964 56.9685 57 56.8725 57C56.7605 57 56.6725 56.964 56.6085 56.892C56.5445 56.82 56.5125 56.736 56.5125 56.64V51.264C56.5125 51.168 56.5445 51.084 56.6085 51.012C56.6805 50.94 56.7685 50.904 56.8725 50.904C56.9765 50.904 57.0605 50.94 57.1245 51.012C57.1965 51.084 57.2325 51.168 57.2325 51.264V52.38L56.9085 52.824C56.9325 52.584 57.0085 52.344 57.1365 52.104C57.2725 51.864 57.4485 51.648 57.6645 51.456C57.8805 51.264 58.1245 51.112 58.3965 51C58.6765 50.88 58.9685 50.82 59.2725 50.82ZM73.439 50.724C73.823 50.724 74.175 50.768 74.495 50.856C74.815 50.936 75.071 51.048 75.263 51.192C75.463 51.336 75.563 51.492 75.563 51.66C75.563 51.74 75.535 51.82 75.479 51.9C75.423 51.972 75.347 52.008 75.251 52.008C75.155 52.008 75.075 51.984 75.011 51.936C74.955 51.888 74.895 51.832 74.831 51.768C74.775 51.704 74.691 51.644 74.579 51.588C74.475 51.54 74.327 51.496 74.135 51.456C73.943 51.416 73.723 51.396 73.475 51.396C73.027 51.396 72.623 51.508 72.263 51.732C71.903 51.956 71.619 52.26 71.411 52.644C71.203 53.02 71.099 53.444 71.099 53.916C71.099 54.396 71.199 54.828 71.399 55.212C71.599 55.596 71.875 55.9 72.227 56.124C72.579 56.34 72.991 56.448 73.463 56.448C73.783 56.448 74.031 56.42 74.207 56.364C74.383 56.308 74.535 56.244 74.663 56.172C74.815 56.084 74.923 56 74.987 55.92C75.059 55.832 75.151 55.788 75.263 55.788C75.367 55.788 75.443 55.82 75.491 55.884C75.547 55.94 75.575 56.016 75.575 56.112C75.575 56.24 75.479 56.384 75.287 56.544C75.103 56.696 74.847 56.832 74.519 56.952C74.191 57.064 73.815 57.12 73.391 57.12C72.791 57.12 72.263 56.98 71.807 56.7C71.359 56.42 71.007 56.04 70.751 55.56C70.503 55.072 70.379 54.524 70.379 53.916C70.379 53.332 70.507 52.8 70.763 52.32C71.019 51.84 71.375 51.456 71.831 51.168C72.295 50.872 72.831 50.724 73.439 50.724ZM82.662 53.928C82.662 54.536 82.53 55.084 82.266 55.572C82.002 56.052 81.642 56.432 81.186 56.712C80.73 56.984 80.21 57.12 79.626 57.12C79.058 57.12 78.542 56.984 78.078 56.712C77.622 56.432 77.258 56.052 76.986 55.572C76.722 55.084 76.59 54.536 76.59 53.928C76.59 53.312 76.722 52.764 76.986 52.284C77.258 51.804 77.622 51.424 78.078 51.144C78.542 50.864 79.058 50.724 79.626 50.724C80.21 50.724 80.73 50.864 81.186 51.144C81.642 51.424 82.002 51.804 82.266 52.284C82.53 52.764 82.662 53.312 82.662 53.928ZM81.942 53.928C81.942 53.44 81.842 53.008 81.642 52.632C81.442 52.248 81.166 51.948 80.814 51.732C80.47 51.508 80.074 51.396 79.626 51.396C79.194 51.396 78.802 51.508 78.45 51.732C78.098 51.948 77.818 52.248 77.61 52.632C77.41 53.008 77.31 53.44 77.31 53.928C77.31 54.416 77.41 54.848 77.61 55.224C77.818 55.6 78.098 55.9 78.45 56.124C78.802 56.34 79.194 56.448 79.626 56.448C80.074 56.448 80.47 56.34 80.814 56.124C81.166 55.9 81.442 55.6 81.642 55.224C81.842 54.848 81.942 54.416 81.942 53.928ZM79.758 48.972L78.714 49.848C78.658 49.896 78.606 49.936 78.558 49.968C78.518 50 78.466 50.016 78.402 50.016C78.346 50.016 78.298 49.996 78.258 49.956C78.218 49.916 78.198 49.872 78.198 49.824C78.198 49.792 78.202 49.76 78.21 49.728C78.226 49.696 78.254 49.664 78.294 49.632L79.17 48.672C79.258 48.536 79.39 48.468 79.566 48.468H79.758C79.846 48.468 79.918 48.484 79.974 48.516C80.038 48.54 80.094 48.592 80.142 48.672L81.006 49.62C81.038 49.66 81.058 49.696 81.066 49.728C81.082 49.752 81.09 49.784 81.09 49.824C81.09 49.864 81.07 49.904 81.03 49.944C80.998 49.984 80.954 50.004 80.898 50.004C80.834 50.004 80.778 49.988 80.73 49.956C80.682 49.924 80.63 49.884 80.574 49.836L79.506 48.984L79.758 48.972ZM86.9521 50.82C87.4481 50.82 87.8721 50.952 88.2241 51.216C88.5761 51.472 88.8161 51.856 88.9441 52.368L88.7761 52.416L88.8481 52.2C88.9521 51.96 89.1241 51.736 89.3641 51.528C89.6121 51.312 89.8921 51.14 90.2041 51.012C90.5161 50.884 90.8321 50.82 91.1521 50.82C91.6561 50.82 92.0601 50.928 92.3641 51.144C92.6761 51.36 92.9001 51.652 93.0361 52.02C93.1801 52.38 93.2521 52.788 93.2521 53.244V56.64C93.2521 56.736 93.2161 56.82 93.1441 56.892C93.0801 56.964 92.9961 57 92.8921 57C92.7881 57 92.7001 56.964 92.6281 56.892C92.5641 56.82 92.5321 56.736 92.5321 56.64V53.28C92.5321 52.952 92.4801 52.652 92.3761 52.38C92.2721 52.108 92.1081 51.892 91.8841 51.732C91.6601 51.572 91.3601 51.492 90.9841 51.492C90.6561 51.492 90.3401 51.572 90.0361 51.732C89.7401 51.892 89.4961 52.108 89.3041 52.38C89.1201 52.652 89.0281 52.952 89.0281 53.28V56.64C89.0281 56.736 88.9921 56.82 88.9201 56.892C88.8561 56.964 88.7721 57 88.6681 57C88.5641 57 88.4761 56.964 88.4041 56.892C88.3401 56.82 88.3081 56.736 88.3081 56.64V53.244C88.3081 52.916 88.2601 52.62 88.1641 52.356C88.0681 52.092 87.9121 51.884 87.6961 51.732C87.4801 51.572 87.1881 51.492 86.8201 51.492C86.4921 51.492 86.1801 51.572 85.8841 51.732C85.5961 51.884 85.3601 52.092 85.1761 52.356C85.0001 52.62 84.9121 52.916 84.9121 53.244V56.64C84.9121 56.736 84.8761 56.82 84.8041 56.892C84.7321 56.964 84.6481 57 84.5521 57C84.4401 57 84.3521 56.964 84.2881 56.892C84.2241 56.82 84.1921 56.736 84.1921 56.64V51.264C84.1921 51.168 84.2241 51.084 84.2881 51.012C84.3601 50.94 84.4481 50.904 84.5521 50.904C84.6561 50.904 84.7401 50.94 84.8041 51.012C84.8761 51.084 84.9121 51.168 84.9121 51.264V52.38L84.5881 52.824C84.6121 52.584 84.6881 52.344 84.8161 52.104C84.9521 51.864 85.1281 51.648 85.3441 51.456C85.5601 51.264 85.8041 51.112 86.0761 51C86.3561 50.88 86.6481 50.82 86.9521 50.82Z" fill="#1F2937"/>
</g>
<defs>
<filter id="filter0_d_155_809" x="0" y="0" width="108" height="81" filterUnits="userSpaceOnUse" color-interpolation-filters="sRGB">
<feFlood flood-opacity="0" result="BackgroundImageFix"/>
<feColorMatrix in="SourceAlpha" type="matrix" values="0 0 0 0 0 0 0 0 0 0 0 0 0 0 0 0 0 0 127 0" result="hardAlpha"/>
<feOffset dy="4"/>
<feGaussianBlur stdDeviation="2"/>
<feComposite in2="hardAlpha" operator="out"/>
<feColorMatrix type="matrix" values="0 0 0 0 0 0 0 0 0 0 0 0 0 0 0 0 0 0 0.25 0"/>
<feBlend mode="normal" in2="BackgroundImageFix" result="effect1_dropShadow_155_809"/>
<feBlend mode="normal" in="SourceGraphic" in2="effect1_dropShadow_155_809" result="shape"/>
</filter>
<linearGradient id="paint0_linear_155_809" x1="4" y1="-4" x2="104" y2="73" gradientUnits="userSpaceOnUse">
<stop stop-color="#FCB058"/>
<stop offset="0.4375" stop-color="#DC9643"/>
<stop offset="0.730769" stop-color="#C07E31"/>
<stop offset="1" stop-color="#A65900"/>
</linearGradient>
</defs>
</svg>
