<svg width="123" height="106" viewBox="0 0 123 106" fill="none" xmlns="http://www.w3.org/2000/svg">
<g filter="url(#filter0_d_155_807)">
<rect x="2.79272" y="28.2441" width="100" height="73" rx="5" transform="rotate(-16.4059 2.79272 28.2441)" fill="white" shape-rendering="crispEdges"/>
<rect x="3.41359" y="28.5825" width="99" height="72" rx="4.5" transform="rotate(-16.4059 3.41359 28.5825)" stroke="url(#paint0_linear_155_807)" shape-rendering="crispEdges"/>
<g opacity="0.8" clip-path="url(#clip0_155_807)">
<path d="M41.6046 35.4595C42.5734 36.8513 42.5068 38.5636 41.4571 39.287C40.4075 40.0104 38.7702 39.4683 37.8014 38.0765C36.8326 36.6847 36.8992 34.9724 37.9489 34.249C38.9985 33.5256 40.6358 34.0677 41.6046 35.4595ZM37.9001 40.6822C38.9232 41.6476 39.157 43.0525 38.4239 43.8156C37.6909 44.5787 36.2668 44.4155 35.2473 43.4491C34.2279 42.4827 33.9905 41.0789 34.7235 40.3157C35.4566 39.5526 36.8807 39.7158 37.9001 40.6822ZM38.9236 48.3008C39.312 42.6628 42.2809 40.3853 43.7666 39.9479C45.2523 39.5105 48.9816 39.8158 52.3632 44.3438C52.5954 44.6547 52.7631 45.0118 52.8733 45.3859L52.8902 45.4435C53.1635 46.3716 52.633 47.3448 51.7049 47.6181C51.2912 47.7399 50.8663 47.8103 50.4373 47.8271L47.0387 47.9677C46.448 47.9931 45.8725 48.1626 45.3623 48.4613L42.4297 50.1848C42.0601 50.4031 41.6648 50.5742 41.2511 50.696C40.323 50.9692 39.3498 50.4388 39.0765 49.5106L39.0596 49.4531C38.9494 49.079 38.8968 48.6879 38.9236 48.3008ZM50.3526 40.3034C49.323 40.0593 48.7582 38.7518 49.095 37.3861C49.4317 36.0204 50.5365 35.1127 51.5662 35.3568C52.5958 35.6009 53.1606 36.9084 52.8238 38.2741C52.4871 39.6398 51.3823 40.5476 50.3526 40.3034ZM45.3494 38.141C44.0752 38.1018 43.0914 36.6988 43.1514 35.0041C43.2115 33.3094 44.2938 31.9665 45.568 32.0057C46.8422 32.0449 47.826 33.4479 47.766 35.1427C47.7059 36.8374 46.6236 38.1802 45.3494 38.141Z" fill="#E8840F"/>
</g>
<path opacity="0.8" d="M64.4815 40.8332C64.3088 40.8841 64.148 40.8689 63.999 40.7876C63.85 40.7064 63.7515 40.5843 63.7035 40.4212L61.2928 32.2337L61.5248 32.3843L60.2293 33.9854C60.1531 34.0808 60.0527 34.1469 59.928 34.1836C59.7649 34.2316 59.6089 34.215 59.4599 34.1338C59.308 34.043 59.2095 33.9208 59.1643 33.7673C59.1022 33.5563 59.1535 33.3587 59.3182 33.1747L61.1613 30.9902C61.2239 30.9197 61.2908 30.8635 61.3618 30.8217C61.4329 30.7799 61.5083 30.7526 61.5878 30.7395C61.7605 30.6887 61.9118 30.7067 62.0416 30.7936C62.1782 30.868 62.2705 30.9868 62.3185 31.1499L64.9409 40.0569C64.989 40.2199 64.9676 40.3774 64.8767 40.5292C64.7955 40.6782 64.6638 40.7796 64.4815 40.8332ZM70.9555 39.0835C70.1593 39.3179 69.4263 39.2887 68.7563 38.996C68.096 38.7005 67.5109 38.2004 67.0011 37.4957C66.5009 36.7882 66.1068 35.9452 65.8187 34.9667C65.5249 33.969 65.398 33.0422 65.4378 32.1861C65.4872 31.3271 65.7093 30.5946 66.1042 29.9884C66.5087 29.3793 67.109 28.9576 67.9052 28.7232C68.7014 28.4887 69.4297 28.5193 70.09 28.8148C70.76 29.1075 71.3436 29.6028 71.841 30.3008C72.3384 30.9987 72.7339 31.8465 73.0277 32.8442C73.3158 33.8226 73.4413 34.7447 73.4043 35.6104C73.3673 36.4761 73.1466 37.2135 72.7421 37.8225C72.3473 38.4287 71.7518 38.849 70.9555 39.0835ZM70.6124 37.9179C71.1208 37.7682 71.4997 37.4795 71.749 37.0516C72.0079 36.621 72.1409 36.0814 72.1481 35.433C72.1524 34.775 72.0331 34.0335 71.7902 33.2085C71.5445 32.3739 71.2429 31.6861 70.8856 31.145C70.5254 30.5943 70.1212 30.2129 69.673 30.0009C69.2317 29.7764 68.7568 29.739 68.2484 29.8887C67.7399 30.0384 67.3563 30.3286 67.0974 30.7592C66.8452 31.1775 66.7122 31.717 66.6983 32.3779C66.6911 33.0263 66.8104 33.7678 67.0561 34.6024C67.299 35.4273 67.6006 36.1152 67.9608 36.6659C68.3278 37.2041 68.7319 37.5855 69.1733 37.81C69.6243 38.0316 70.104 38.0676 70.6124 37.9179ZM79.5975 36.539C78.8013 36.7734 78.0683 36.7443 77.3983 36.4516C76.738 36.1561 76.1529 35.656 75.6431 34.9513C75.1429 34.2437 74.7487 33.4007 74.4607 32.4223C74.1669 31.4246 74.04 30.4977 74.0798 29.6416C74.1292 28.7827 74.3513 28.0501 74.7462 27.4439C75.1506 26.8349 75.751 26.4132 76.5472 26.1787C77.3434 25.9443 78.0717 25.9748 78.732 26.2704C79.402 26.5631 79.9856 27.0584 80.483 27.7563C80.9804 28.4543 81.3759 29.3021 81.6697 30.2997C81.9578 31.2782 82.0833 32.2003 82.0463 33.066C82.0093 33.9317 81.7886 34.669 81.3841 35.2781C80.9893 35.8843 80.3937 36.3046 79.5975 36.539ZM79.2544 35.3735C79.7628 35.2238 80.1417 34.935 80.391 34.5072C80.6499 34.0765 80.7829 33.537 80.7901 32.8886C80.7944 32.2305 80.6751 31.489 80.4322 30.6641C80.1865 29.8295 79.8849 29.1416 79.5276 28.6006C79.1674 28.0499 78.7632 27.6685 78.315 27.4564C77.8737 27.232 77.3988 27.1946 76.8904 27.3443C76.3819 27.494 75.9983 27.7841 75.7394 28.2148C75.4872 28.633 75.3542 29.1726 75.3403 29.8334C75.3331 30.4818 75.4524 31.2233 75.6981 32.0579C75.941 32.8829 76.2426 33.5707 76.6028 34.1214C76.9698 34.6597 77.3739 35.0411 77.8153 35.2655C78.2663 35.4872 78.746 35.5232 79.2544 35.3735Z" fill="#E8840F"/>
<path opacity="0.8" d="M33.3953 72.1107C33.9018 71.9615 34.3352 71.9465 34.6955 72.0656C35.0612 72.1747 35.3613 72.3866 35.5957 72.7012C35.8355 73.0059 36.0175 73.3693 36.1418 73.7914L37.1383 77.1757C37.1654 77.2678 37.1546 77.3586 37.1058 77.448C37.0571 77.5374 36.9867 77.5956 36.8946 77.6227C36.7871 77.6544 36.6926 77.6447 36.6108 77.5937C36.5291 77.5427 36.4747 77.4712 36.4476 77.3791L35.4613 74.0293C35.3709 73.7223 35.2385 73.4569 35.0642 73.233C34.8899 73.0091 34.665 72.8543 34.3896 72.7686C34.1219 72.6807 33.8038 72.6909 33.4354 72.7994C33.1054 72.8965 32.8134 73.0659 32.5593 73.3075C32.3128 73.5469 32.1348 73.8203 32.0252 74.1278C31.9156 74.4352 31.906 74.7425 31.9963 75.0494L32.9826 78.3993C33.0097 78.4913 32.9989 78.5821 32.9502 78.6715C32.9015 78.7609 32.8311 78.8192 32.739 78.8463C32.6315 78.8779 32.5369 78.8682 32.4552 78.8172C32.3735 78.7662 32.3191 78.6947 32.2919 78.6026L30.7735 73.4455C30.7464 73.3534 30.7534 73.2638 30.7945 73.1766C30.8432 73.0872 30.9174 73.0278 31.0172 72.9985C31.117 72.9691 31.2077 72.9799 31.2895 73.0309C31.3789 73.0796 31.4371 73.15 31.4642 73.2421L31.7489 74.2091L31.6062 74.7015C31.5492 74.4514 31.5571 74.1947 31.6297 73.9315C31.7077 73.6583 31.832 73.4007 32.0026 73.1587C32.1709 72.909 32.3747 72.6947 32.6139 72.5158C32.8585 72.3271 33.119 72.192 33.3953 72.1107ZM39.728 70.2461C40.0733 70.1445 40.4099 70.1121 40.7377 70.149C41.0632 70.1783 41.3616 70.2572 41.633 70.3858C41.9098 70.5044 42.1412 70.6531 42.3273 70.8318C42.5111 71.0029 42.6312 71.1843 42.6877 71.3762L42.4106 71.1576L42.0954 70.087C42.0661 69.9872 42.0719 69.8938 42.113 69.8066C42.1617 69.7172 42.2359 69.6578 42.3357 69.6285C42.4432 69.5968 42.5377 69.6065 42.6195 69.6575C42.7012 69.7085 42.7568 69.7839 42.7861 69.8836L44.2537 74.8681C44.4344 75.482 44.4603 76.0373 44.3314 76.534C44.2024 77.0306 43.9508 77.4508 43.5766 77.7944C43.2124 78.1435 42.754 78.3994 42.2015 78.5621C41.9329 78.6412 41.6388 78.6903 41.3191 78.7093C41.0072 78.7261 40.7279 78.7124 40.4814 78.6682C40.2426 78.6218 40.0947 78.5444 40.0378 78.4361C39.9561 78.3851 39.905 78.3251 39.8847 78.256C39.8743 78.1923 39.893 78.1285 39.9408 78.0643C40.0018 77.988 40.0801 77.9566 40.1758 77.9701C40.2738 77.9913 40.4173 78.0116 40.6065 78.031C40.69 78.0314 40.8038 78.0354 40.9478 78.0431C41.0919 78.0507 41.2566 78.0439 41.4422 78.0226C41.6377 78.0067 41.8352 77.9694 42.0347 77.9107C42.7254 77.7073 43.2 77.3508 43.4585 76.841C43.727 76.3366 43.7664 75.7621 43.5766 75.1175L43.2512 74.0124L43.388 74.0096C43.4003 74.3062 43.3563 74.5819 43.2562 74.8365C43.1637 75.0889 43.0315 75.3197 42.8595 75.5287C42.6853 75.7301 42.4818 75.9027 42.2488 76.0463C42.0259 76.1953 41.7916 76.306 41.546 76.3783C41.0165 76.5342 40.5011 76.54 40 76.3957C39.4988 76.2514 39.0538 75.9863 38.665 75.6004C38.2838 75.2122 38.0063 74.7227 37.8323 74.1318C37.6605 73.5485 37.6297 72.9905 37.7397 72.4578C37.8551 71.9151 38.0816 71.4522 38.4192 71.0693C38.7622 70.6764 39.1985 70.402 39.728 70.2461ZM39.9984 70.867C39.5763 70.9913 39.228 71.2106 38.9536 71.5249C38.6847 71.8293 38.5085 72.1939 38.4251 72.6187C38.3471 73.0337 38.3759 73.4713 38.5114 73.9318C38.647 74.3923 38.8611 74.7795 39.1538 75.0937C39.4541 75.4056 39.8009 75.6204 40.1941 75.7381C40.5928 75.8459 41.0032 75.8376 41.4253 75.7134C41.8474 75.5891 42.1929 75.3748 42.4619 75.0704C42.7309 74.766 42.9082 74.4053 42.9938 73.9881C43.0772 73.5632 43.0489 73.1129 42.9088 72.6371C42.7687 72.1613 42.5496 71.7713 42.2516 71.4671C41.9513 71.1552 41.6067 70.9481 41.218 70.8457C40.827 70.7357 40.4205 70.7428 39.9984 70.867ZM50.619 70.3795C50.7907 70.9627 50.8189 71.5257 50.7035 72.0684C50.5858 72.6034 50.3478 73.0696 49.9894 73.467C49.6288 73.8567 49.1684 74.1341 48.6082 74.299C48.0633 74.4595 47.5299 74.4747 47.008 74.3449C46.4914 74.205 46.0349 73.9433 45.6384 73.5597C45.2474 73.1661 44.9659 72.6777 44.7942 72.0945C44.6202 71.5036 44.5921 70.9406 44.7098 70.4056C44.8351 69.8683 45.077 69.401 45.4353 69.0036C45.8014 68.6039 46.2568 68.3239 46.8017 68.1634C47.3619 67.9985 47.9003 67.9859 48.4168 68.1257C48.9333 68.2655 49.386 68.5284 49.7748 68.9143C50.1636 69.3002 50.445 69.7886 50.619 70.3795ZM49.9283 70.5829C49.7905 70.1147 49.5725 69.7286 49.2745 69.4244C48.9742 69.1125 48.6247 68.9026 48.226 68.7949C47.8327 68.6771 47.4212 68.6815 46.9915 68.8081C46.5771 68.9301 46.2327 69.1483 45.9583 69.4625C45.6816 69.7692 45.4977 70.136 45.4067 70.5632C45.321 70.9803 45.3471 71.423 45.4849 71.8911C45.6227 72.3593 45.8407 72.7454 46.1387 73.0496C46.4445 73.3516 46.7978 73.5603 47.1987 73.6757C47.5974 73.7835 48.004 73.7764 48.4184 73.6544C48.8481 73.5279 49.1975 73.3124 49.4665 73.008C49.7409 72.6937 49.9209 72.328 50.0066 71.9108C50.0922 71.4936 50.0661 71.051 49.9283 70.5829ZM56.0459 65.5918C56.1457 65.5624 56.2364 65.5732 56.3181 65.6242C56.4076 65.6729 56.4669 65.7472 56.4963 65.847L58.0215 71.0271C58.0486 71.1192 58.0378 71.2099 57.9891 71.2993C57.9403 71.3888 57.8699 71.447 57.7778 71.4741C57.6781 71.5035 57.5835 71.4938 57.4941 71.4451C57.4123 71.3941 57.3579 71.3226 57.3308 71.2305L56.9275 69.8606L57.0961 69.7109C57.1593 69.9258 57.1623 70.1626 57.1051 70.4213C57.0555 70.6777 56.9553 70.9324 56.8046 71.1852C56.6539 71.4381 56.4546 71.6677 56.2068 71.8741C55.9645 72.0706 55.6821 72.2163 55.3598 72.3112C54.8379 72.4648 54.3303 72.4683 53.8368 72.3217C53.351 72.1729 52.9202 71.8994 52.5444 71.5014C52.1764 71.101 51.9065 70.6092 51.7348 70.026C51.5585 69.4274 51.5227 68.8667 51.6273 68.3438C51.7296 67.8133 51.9457 67.3577 52.2757 66.9771C52.6056 66.5964 53.0276 66.3303 53.5418 66.179C53.8718 66.0818 54.1957 66.049 54.5135 66.0805C54.8391 66.1097 55.1386 66.1925 55.4123 66.3288C55.6859 66.465 55.9187 66.6467 56.1106 66.8737C56.308 67.0908 56.4473 67.3375 56.5286 67.6138L56.2361 67.5123L55.8056 66.0503C55.7763 65.9506 55.7821 65.8571 55.8232 65.77C55.8719 65.6806 55.9461 65.6212 56.0459 65.5918ZM55.2275 71.6496C55.6343 71.5298 55.9645 71.32 56.2181 71.0202C56.4695 70.7126 56.6292 70.3487 56.6973 69.9284C56.7707 69.4981 56.7397 69.0528 56.6041 68.5923C56.4708 68.1395 56.2589 67.7599 55.9686 67.4534C55.6859 67.1447 55.3555 66.9292 54.9776 66.807C54.5997 66.6848 54.2074 66.6835 53.8007 66.8033C53.4016 66.9208 53.0714 67.1306 52.8101 67.4327C52.5565 67.7325 52.3906 68.0899 52.3127 68.5048C52.2423 68.9175 52.2761 69.3579 52.4139 69.826C52.5495 70.2865 52.7609 70.6787 53.0481 71.0028C53.3408 71.3169 53.6761 71.5351 54.054 71.6574C54.4296 71.7719 54.8208 71.7693 55.2275 71.6496ZM60.9372 64.0015C61.4437 63.8524 61.8772 63.8374 62.2375 63.9565C62.6032 64.0656 62.9032 64.2775 63.1376 64.5921C63.3774 64.8968 63.5595 65.2601 63.6838 65.6822L64.6802 69.0666C64.7073 69.1587 64.6965 69.2494 64.6478 69.3388C64.5991 69.4282 64.5286 69.4865 64.4366 69.5136C64.3291 69.5452 64.2345 69.5356 64.1528 69.4846C64.0711 69.4336 64.0166 69.362 63.9895 69.2699L63.0033 65.9201C62.9129 65.6131 62.7805 65.3477 62.6062 65.1238C62.4319 64.9 62.207 64.7452 61.9316 64.6595C61.6638 64.5715 61.3458 64.5818 60.9774 64.6902C60.6474 64.7874 60.3554 64.9568 60.1012 65.1984C59.8548 65.4377 59.6768 65.7111 59.5672 66.0186C59.4576 66.3261 59.4479 66.6333 59.5383 66.9403L60.5246 70.2901C60.5517 70.3822 60.5409 70.473 60.4922 70.5624C60.4434 70.6518 60.373 70.71 60.2809 70.7371C60.1735 70.7688 60.0789 70.7591 59.9972 70.7081C59.9154 70.6571 59.861 70.5856 59.8339 70.4935L58.3155 65.3364C58.2884 65.2443 58.2954 65.1547 58.3364 65.0675C58.3852 64.9781 58.4594 64.9187 58.5592 64.8893C58.6589 64.86 58.7497 64.8708 58.8314 64.9218C58.9208 64.9705 58.9791 65.0409 59.0062 65.133L59.2909 66.1L59.1481 66.5923C59.0912 66.3422 59.099 66.0856 59.1716 65.8223C59.2497 65.5492 59.374 65.2916 59.5445 65.0496C59.7129 64.7998 59.9166 64.5856 60.1559 64.4067C60.4005 64.2179 60.661 64.0829 60.9372 64.0015ZM67.8282 62.0602C67.9434 62.0263 68.0501 62.0491 68.1486 62.1285L73.7759 66.2009C73.8477 66.2465 73.8949 66.3077 73.9175 66.3844C73.9446 66.4765 73.9338 66.5672 73.8851 66.6566C73.8363 66.746 73.7659 66.8043 73.6738 66.8314C73.5664 66.863 73.4558 66.8414 73.342 66.7665L67.7031 62.6975C67.6413 62.6573 67.5979 62.595 67.5731 62.5106C67.5437 62.4108 67.5545 62.3201 67.6055 62.2384C67.6619 62.1467 67.7362 62.0873 67.8282 62.0602ZM69.5873 68.0346C69.5105 68.0572 69.4259 68.0529 69.3333 68.0218C69.2485 67.9884 69.1913 67.9219 69.1619 67.8221C69.1371 67.7377 69.1425 67.6569 69.1781 67.5797L70.3881 64.5089L70.9306 64.9496L69.8229 67.8151C69.7809 67.9276 69.7024 68.0007 69.5873 68.0346ZM71.9148 60.857C72.0146 60.8276 72.1003 60.8357 72.1721 60.8813C72.2494 60.9169 72.3004 60.977 72.3252 61.0614C72.3365 61.0998 72.3402 61.1404 72.3361 61.1833C72.3397 61.2239 72.3307 61.2641 72.3091 61.3038L71.1161 64.4322L70.5965 63.9847L71.6711 61.0914C71.7261 60.9668 71.8074 60.8886 71.9148 60.857ZM75.8801 65.769C75.9072 65.8611 75.8964 65.9519 75.8477 66.0413C75.7989 66.1307 75.7285 66.1889 75.6364 66.216C75.5367 66.2454 75.4421 66.2357 75.3527 66.187C75.271 66.136 75.2165 66.0645 75.1894 65.9724L73.6304 60.6771C73.6032 60.585 73.6102 60.4954 73.6513 60.4083C73.7 60.3189 73.7742 60.2595 73.874 60.2301C73.9738 60.2007 74.0645 60.2115 74.1463 60.2625C74.2357 60.3113 74.2939 60.3817 74.321 60.4738L75.8801 65.769ZM73.6469 59.4588C73.4858 59.5063 73.3528 59.5079 73.2481 59.4637C73.1487 59.4095 73.0787 59.3134 73.038 59.1753L73.0042 59.0602C72.9635 58.922 72.9752 58.806 73.0393 58.7121C73.1088 58.6082 73.2203 58.5337 73.3737 58.4885C73.5196 58.4456 73.6421 58.4512 73.7415 58.5053C73.8462 58.5495 73.9189 58.6407 73.9596 58.7788L73.9935 58.894C74.0342 59.0321 74.0236 59.152 73.9618 59.2536C73.9054 59.3452 73.8004 59.4137 73.6469 59.4588ZM78.7777 58.7488C79.2842 58.5997 79.7176 58.5846 80.0779 58.7037C80.4436 58.8129 80.7437 59.0248 80.9781 59.3394C81.2179 59.644 81.3999 60.0074 81.5242 60.4295L82.5207 63.8139C82.5478 63.9059 82.537 63.9967 82.4882 64.0861C82.4395 64.1755 82.3691 64.2338 82.277 64.2609C82.1696 64.2925 82.075 64.2828 81.9932 64.2318C81.9115 64.1808 81.8571 64.1093 81.83 64.0172L80.8437 60.6674C80.7533 60.3604 80.621 60.095 80.4466 59.8711C80.2723 59.6472 80.0474 59.4924 79.772 59.4067C79.5043 59.3188 79.1862 59.329 78.8178 59.4375C78.4879 59.5347 78.1958 59.704 77.9417 59.9456C77.6953 60.185 77.5172 60.4584 77.4076 60.7659C77.298 61.0734 77.2884 61.3806 77.3788 61.6876L78.365 65.0374C78.3922 65.1295 78.3813 65.2202 78.3326 65.3096C78.2839 65.399 78.2135 65.4573 78.1214 65.4844C78.0139 65.516 77.9194 65.5064 77.8376 65.4554C77.7559 65.4044 77.7015 65.3328 77.6744 65.2407L76.156 60.0836C76.1288 59.9915 76.1358 59.9019 76.1769 59.8148C76.2256 59.7254 76.2999 59.666 76.3996 59.6366C76.4994 59.6072 76.5901 59.618 76.6719 59.669C76.7613 59.7178 76.8195 59.7882 76.8466 59.8803L77.1313 60.8472L76.9886 61.3396C76.9316 61.0895 76.9395 60.8328 77.0121 60.5696C77.0901 60.2965 77.2144 60.0389 77.385 59.7968C77.5533 59.5471 77.7571 59.3328 77.9963 59.154C78.241 58.9652 78.5014 58.8301 78.7777 58.7488ZM85.3678 56.9086C85.8512 56.7662 86.2731 56.7546 86.6334 56.8737C86.9937 56.9928 87.2949 57.2085 87.537 57.5208C87.7867 57.8309 87.9749 58.2008 88.1014 58.6306L89.0606 61.8883C89.0877 61.9804 89.0769 62.0712 89.0282 62.1606C88.9794 62.25 88.909 62.3082 88.8169 62.3353C88.7095 62.367 88.6149 62.3573 88.5332 62.3063C88.4514 62.2553 88.397 62.1838 88.3699 62.0917L87.4107 58.8339C87.3181 58.5193 87.1846 58.25 87.0103 58.0262C86.8436 57.8 86.6314 57.6457 86.3736 57.5631C86.1135 57.4729 85.8031 57.4809 85.4424 57.5871C85.1201 57.682 84.8357 57.8491 84.5893 58.0885C84.3483 58.3179 84.1768 58.5852 84.0749 58.8904C83.9729 59.1956 83.9683 59.5056 84.0609 59.8202L85.0201 63.078C85.0472 63.17 85.0364 63.2608 84.9877 63.3502C84.9389 63.4396 84.8685 63.4979 84.7764 63.525C84.669 63.5566 84.5744 63.5469 84.4927 63.4959C84.4109 63.4449 84.3565 63.3734 84.3294 63.2813L82.0247 55.4535C81.9976 55.3615 82.0045 55.2718 82.0456 55.1847C82.0943 55.0953 82.1686 55.0359 82.2683 55.0065C82.3681 54.9772 82.4589 54.988 82.5406 55.039C82.63 55.0877 82.6883 55.1581 82.7154 55.2502L83.8135 58.9799L83.6674 59.4607C83.6127 59.2183 83.6178 58.9666 83.6827 58.7057C83.7531 58.4348 83.8697 58.1794 84.0326 57.9396C84.1933 57.6922 84.3894 57.4802 84.6209 57.3036C84.8502 57.1193 85.0992 56.9877 85.3678 56.9086ZM94.6873 60.2316C94.7144 60.3237 94.7036 60.4145 94.6549 60.5039C94.6062 60.5933 94.5358 60.6515 94.4437 60.6787C94.3439 60.708 94.2493 60.6984 94.1599 60.6496C94.0782 60.5986 94.0238 60.5271 93.9967 60.435L92.4376 55.1397C92.4105 55.0477 92.4174 54.958 92.4585 54.8709C92.5072 54.7815 92.5815 54.7221 92.6812 54.6927C92.781 54.6634 92.8718 54.6742 92.9535 54.7252C93.0429 54.7739 93.1011 54.8443 93.1283 54.9364L94.6873 60.2316ZM92.4542 53.9215C92.293 53.9689 92.16 53.9705 92.0553 53.9263C91.956 53.8722 91.8859 53.776 91.8453 53.6379L91.8114 53.5228C91.7707 53.3846 91.7824 53.2686 91.8465 53.1747C91.916 53.0708 92.0275 52.9963 92.181 52.9511C92.3268 52.9082 92.4494 52.9138 92.5487 52.9679C92.6534 53.0122 92.7262 53.1033 92.7668 53.2415L92.8007 53.3566C92.8414 53.4947 92.8308 53.6146 92.769 53.7162C92.7126 53.8078 92.6076 53.8763 92.4542 53.9215ZM99.2589 52.9062C99.3586 52.8768 99.4494 52.8876 99.5311 52.9386C99.6205 52.9874 99.6788 53.0578 99.7059 53.1499L100.662 56.3961C100.885 57.1558 100.841 57.7985 100.529 58.3241C100.217 58.8497 99.6959 59.2198 98.9668 59.4345C98.2454 59.6469 97.6111 59.6168 97.0639 59.3443C96.5243 59.0695 96.1427 58.5522 95.919 57.7925L94.9632 54.5462C94.9361 54.4542 94.943 54.3645 94.9841 54.2774C95.0328 54.188 95.1071 54.1286 95.2069 54.0992C95.3066 54.0699 95.3974 54.0807 95.4791 54.1317C95.5685 54.1804 95.6268 54.2508 95.6539 54.3429L96.6097 57.5891C96.7723 58.1417 97.0424 58.5208 97.4199 58.7266C97.8028 58.9224 98.2552 58.9435 98.777 58.7898C99.3066 58.6339 99.6792 58.3699 99.8949 57.9979C100.108 57.6181 100.134 57.152 99.971 56.5994L99.0152 53.3532C98.9881 53.2611 98.9951 53.1715 99.0361 53.0844C99.0772 52.9972 99.1514 52.9378 99.2589 52.9062Z" fill="#1F2937"/>
</g>
<defs>
<filter id="filter0_d_155_807" x="-1.20728" y="0" width="124.547" height="106.272" filterUnits="userSpaceOnUse" color-interpolation-filters="sRGB">
<feFlood flood-opacity="0" result="BackgroundImageFix"/>
<feColorMatrix in="SourceAlpha" type="matrix" values="0 0 0 0 0 0 0 0 0 0 0 0 0 0 0 0 0 0 127 0" result="hardAlpha"/>
<feOffset dy="4"/>
<feGaussianBlur stdDeviation="2"/>
<feComposite in2="hardAlpha" operator="out"/>
<feColorMatrix type="matrix" values="0 0 0 0 0 0 0 0 0 0 0 0 0 0 0 0 0 0 0.25 0"/>
<feBlend mode="normal" in2="BackgroundImageFix" result="effect1_dropShadow_155_807"/>
<feBlend mode="normal" in="SourceGraphic" in2="effect1_dropShadow_155_807" result="shape"/>
</filter>
<linearGradient id="paint0_linear_155_807" x1="2.79273" y1="24.2441" x2="102.793" y2="101.244" gradientUnits="userSpaceOnUse">
<stop stop-color="#FCB058"/>
<stop offset="0.4375" stop-color="#DC9643"/>
<stop offset="0.730769" stop-color="#C07E31"/>
<stop offset="1" stop-color="#A65900"/>
</linearGradient>
<clipPath id="clip0_155_807">
<rect width="24" height="24" fill="white" transform="translate(29.2048 32.9769) rotate(-16.4059)"/>
</clipPath>
</defs>
</svg>
