<svg width="698" height="877" viewBox="0 0 698 877" fill="none" xmlns="http://www.w3.org/2000/svg">
<path fill-rule="evenodd" clip-rule="evenodd" d="M383.365 0.660905C472.529 5.37687 566.32 42.2627 620.761 119.058C671.097 190.064 637.275 290.888 651.654 379.114C663.213 450.044 706.356 512.961 696.567 584.204C685.722 663.132 651.145 738.452 595.17 790.186C536.545 844.368 458.897 889.895 383.365 873.671C310.157 857.947 287.352 754.823 224.806 710.635C156.37 662.287 37.0585 688.785 5.77707 606.913C-24.8671 526.71 75.4206 456.257 95.4996 372.209C117.741 279.108 71.5144 166.633 128.545 93.0241C187.629 16.7636 291.677 -4.1886 383.365 0.660905Z" fill="#FDC435"/>
</svg>
